<?xml version="1.0" encoding="utf-8"?>
<!-- Generator: Adobe Illustrator 19.2.0, SVG Export Plug-In . SVG Version: 6.00 Build 0)  -->
<svg version="1.1" id="Layer_1" xmlns="http://www.w3.org/2000/svg" xmlns:xlink="http://www.w3.org/1999/xlink" x="0px" y="0px"
	 viewBox="0 0 88.4 62.7" style="enable-background:new 0 0 88.4 62.7;" xml:space="preserve">
<style type="text/css">
	.st0{fill:#8E837C;}
	.st1{fill:#CDAF30;}
	.st2{fill:#E8C735;}
	.st3{fill:#54504D;}
</style>
<g>
	<g>
		<path class="st0" d="M0.8,43.6c0.4-1,0.9-1.7,1.7-2.3c0.8-0.6,1.7-0.8,2.9-0.8c0.8,0,1.6,0.1,2.5,0.3c0.3,0.2,0.5,0.4,0.7,0.5
			S9,41.8,9.2,42c0,0.4-0.1,0.9-0.2,1.5c-0.1,0.6-0.2,1.2-0.4,1.8c-0.2,0.5-0.3,0.9-0.4,1.1c-0.1,0.1-0.3,0.1-0.3,0.1
			c-0.1,0-0.2,0-0.4,0c-0.2,0-0.5,0-0.7-0.1c-0.2,0-0.4-0.1-0.5-0.2L6,43.6c-0.4-0.1-0.9-0.2-1.6-0.2c-0.2,0-0.3,0-0.4,0
			c-0.2,0.7-0.4,1.7-0.4,3c0,0.2,0,0.4,0,0.7c0,0.7,0,1.3,0.1,1.8c0.1,0.4,0.1,0.7,0.2,0.9c0.1,0.2,0.2,0.4,0.4,0.5
			c0.2,0.1,0.5,0.2,0.9,0.2c0.5,0,1-0.1,1.5-0.2c0.5-0.2,0.9-0.4,1.5-0.7c0.2,0.2,0.4,0.4,0.5,0.5c0.1,0.1,0.2,0.3,0.3,0.5
			c0.1,0.2,0.2,0.4,0.2,0.7c-0.1,0.2-0.3,0.4-0.7,0.7c-0.4,0.3-0.8,0.6-1.4,0.8c-0.6,0.2-1.3,0.4-2,0.4c-1.7,0-2.9-0.5-3.7-1.6
			c-0.8-1.1-1.1-2.7-1.1-4.7C0.3,45.7,0.5,44.6,0.8,43.6z"/>
		<path class="st0" d="M10.5,45.7c0.3-0.7,0.8-1.3,1.4-1.7c0.6-0.4,1.4-0.6,2.4-0.6c1.1,0,1.9,0.2,2.5,0.6c0.6,0.4,1,1,1.3,1.7
			s0.4,1.6,0.4,2.6c0,0.9-0.2,1.8-0.5,2.5c-0.3,0.7-0.8,1.3-1.4,1.7c-0.6,0.4-1.4,0.6-2.4,0.6c-1.4,0-2.5-0.5-3.1-1.4
			c-0.6-0.9-1-2.1-1-3.6C10,47.3,10.2,46.5,10.5,45.7z M14.9,50.8c0.1-0.2,0.2-0.5,0.3-0.9c0.1-0.4,0.1-0.8,0.1-1.3
			c0-0.4,0-0.8-0.1-1.2c-0.1-0.4-0.1-0.7-0.2-0.9c-0.1-0.1-0.2-0.1-0.3-0.2c-0.2,0-0.4-0.1-0.6-0.1c-0.3,0-0.5,0-0.6,0.1
			c-0.3,0.5-0.4,1.1-0.4,1.9c0,0.4,0,0.8,0.1,1.2c0.1,0.4,0.1,0.8,0.2,1.1c0.1,0.1,0.2,0.1,0.4,0.2c0.2,0,0.4,0.1,0.6,0.1
			C14.7,50.8,14.8,50.8,14.9,50.8z"/>
		<path class="st0" d="M20.2,49.2c0-1.8,0-2.8,0-2.9l-0.7-0.1c-0.1-0.3-0.2-0.6-0.2-0.9c0-0.3-0.1-0.5-0.1-0.8c0-0.1,0-0.2,0-0.3
			c0.1-0.1,0.2-0.2,0.4-0.3s0.4-0.2,0.7-0.3c0.3-0.1,0.5-0.1,0.8-0.1c0.6,0,1.1,0.1,1.4,0.4c0.3,0.3,0.4,0.7,0.4,1.3
			c0,0.3,0,0.8-0.1,1.3c-0.1,0.5-0.2,0.9-0.2,1.1l0.3,0l0.5-1.8c0.2-0.8,0.5-1.4,0.8-1.8c0.3-0.4,0.7-0.5,1.1-0.5
			c0.3,0,0.5,0,0.8,0.1c0.3,0.1,0.5,0.2,0.6,0.3c0.1,0.3,0.2,0.8,0.2,1.3c0,0.4,0,0.8-0.1,1.2c-0.1,0.4-0.2,0.7-0.3,0.9l-1.7-0.2
			c-0.3,0.4-0.7,0.9-1.1,1.5c-0.4,0.7-0.7,1.2-0.9,1.8l0,0.4l1.5-0.4c0.3,0.4,0.4,0.9,0.5,1.4c0,0-0.1,0.2-0.4,0.4
			c-0.2,0.2-0.5,0.4-0.9,0.6c-0.4,0.2-0.8,0.3-1.3,0.3c-0.5,0-0.9-0.1-1.3-0.4s-0.5-0.8-0.5-1.4c0-0.1,0-0.2,0-0.5
			C20.2,50.7,20.2,50.1,20.2,49.2z"/>
		<path class="st0" d="M28.2,49.2c0-1.8,0-2.8,0-2.9l-0.7-0.1c-0.1-0.3-0.2-0.6-0.2-0.9c0-0.3-0.1-0.5-0.1-0.8c0-0.1,0-0.2,0-0.3
			c0.1-0.1,0.2-0.2,0.4-0.3s0.4-0.2,0.7-0.3c0.3-0.1,0.5-0.1,0.8-0.1c0.6,0,1.1,0.1,1.4,0.4c0.3,0.3,0.4,0.7,0.4,1.3
			c0,0.3,0,0.8-0.1,1.3c-0.1,0.5-0.2,0.9-0.2,1.1l0.3,0l0.5-1.8c0.2-0.8,0.5-1.4,0.8-1.8c0.3-0.4,0.7-0.5,1.1-0.5
			c0.3,0,0.5,0,0.8,0.1c0.3,0.1,0.5,0.2,0.6,0.3c0.1,0.3,0.2,0.8,0.2,1.3c0,0.4,0,0.8-0.1,1.2c-0.1,0.4-0.2,0.7-0.3,0.9l-1.7-0.2
			c-0.3,0.4-0.7,0.9-1.1,1.5c-0.4,0.7-0.7,1.2-0.9,1.8l0,0.4l1.5-0.4c0.3,0.4,0.4,0.9,0.5,1.4c0,0-0.1,0.2-0.4,0.4
			c-0.2,0.2-0.5,0.4-0.9,0.6s-0.8,0.3-1.3,0.3c-0.5,0-0.9-0.1-1.3-0.4c-0.3-0.3-0.5-0.8-0.5-1.4c0-0.1,0-0.2,0-0.5
			C28.1,50.7,28.1,50.1,28.2,49.2z"/>
		<path class="st0" d="M35.7,45.9c0.3-0.7,0.8-1.3,1.4-1.7c0.6-0.4,1.4-0.6,2.4-0.6c0.5,0,1,0.1,1.5,0.2c0.5,0.1,0.9,0.3,1.3,0.6
			c0.3,0.3,0.6,0.6,0.7,1c0.1,0.4,0.2,0.9,0.2,1.4c0,0.4,0,0.7-0.1,1.1c-0.1,0.1-0.2,0.2-0.4,0.4c-0.2,0.2-0.4,0.3-0.6,0.5
			c-0.2,0.2-0.5,0.3-0.7,0.4c-0.2,0-0.5,0-0.7,0c-0.4,0-0.8,0-1.3-0.1c-0.4,0-0.8-0.1-1.1-0.1c0,0.5,0.2,0.9,0.4,1.2
			c0.2,0.3,0.6,0.5,1.1,0.5c0,0,0.1,0,0.2,0c0.3,0,0.7-0.1,1.1-0.3c0.4-0.1,0.9-0.3,1.3-0.5c0.2,0.2,0.3,0.4,0.4,0.6
			c0.1,0.2,0.2,0.5,0.2,0.9c-0.2,0.2-0.4,0.4-0.8,0.7c-0.4,0.3-0.8,0.5-1.3,0.8c-0.5,0.2-1.1,0.3-1.7,0.3c-0.9,0-1.6-0.2-2.2-0.6
			c-0.6-0.4-1.1-1-1.4-1.7c-0.3-0.7-0.5-1.6-0.5-2.5C35.3,47.4,35.4,46.6,35.7,45.9z M40.3,46.5c-0.1-0.1-0.2-0.1-0.4-0.2
			c-0.2,0-0.4-0.1-0.5-0.1c-0.2,0-0.3,0-0.5,0c-0.2,0-0.2,0.1-0.3,0.1c-0.2,0.4-0.3,0.8-0.3,1.2l2.1-0.2L40.3,46.5z"/>
		<path class="st0" d="M48.3,43.6c0.4-1,0.9-1.7,1.7-2.3c0.8-0.6,1.7-0.8,2.9-0.8c0.8,0,1.6,0.1,2.5,0.3c0.3,0.2,0.5,0.4,0.7,0.5
			c0.2,0.2,0.4,0.4,0.6,0.7c0,0.4-0.1,0.9-0.2,1.5c-0.1,0.6-0.2,1.2-0.4,1.8c-0.2,0.5-0.3,0.9-0.4,1.1c-0.1,0.1-0.3,0.1-0.3,0.1
			c-0.1,0-0.2,0-0.4,0c-0.2,0-0.5,0-0.7-0.1s-0.4-0.1-0.5-0.2l-0.3-2.7c-0.4-0.1-0.9-0.2-1.6-0.2c-0.2,0-0.3,0-0.4,0
			c-0.2,0.7-0.4,1.7-0.4,3c0,0.2,0,0.4,0,0.7c0,0.7,0,1.3,0.1,1.8c0.1,0.4,0.1,0.7,0.2,0.9c0.1,0.2,0.2,0.4,0.4,0.5
			c0.2,0.1,0.5,0.2,0.9,0.2c0.5,0,1-0.1,1.5-0.2c0.5-0.2,0.9-0.4,1.5-0.7c0.2,0.2,0.4,0.4,0.5,0.5c0.1,0.1,0.2,0.3,0.3,0.5
			c0.1,0.2,0.2,0.4,0.2,0.7c-0.1,0.2-0.3,0.4-0.7,0.7c-0.4,0.3-0.8,0.6-1.4,0.8c-0.6,0.2-1.3,0.4-2,0.4c-1.7,0-2.9-0.5-3.7-1.6
			c-0.8-1.1-1.1-2.7-1.1-4.7C47.7,45.7,47.9,44.6,48.3,43.6z"/>
		<path class="st0" d="M57.4,46.1c-0.1-0.4-0.1-0.7-0.2-0.9c0-0.2,0-0.5,0-0.8c0.3-0.3,0.6-0.5,1-0.7c0.4-0.2,0.8-0.2,1.2-0.2
			c1.4,0,2,0.7,2,2.1c0,0.4,0,0.8-0.1,1.3c-0.1,0.5-0.2,1.1-0.3,1.9c0,0.1-0.1,0.4-0.1,0.8c-0.1,0.4-0.1,0.8-0.1,1.1
			c0.1,0.1,0.2,0.2,0.3,0.2c0.1,0,0.2-0.1,0.4-0.4c0.2-0.3,0.5-0.6,0.7-1c0.3-0.4,0.5-0.7,0.6-1.1c0-0.8,0.1-1.5,0.2-2.1L62.3,46
			c-0.1-0.3-0.1-0.5-0.1-0.7c0-0.2,0-0.4,0-0.7l0-0.2c0.2-0.2,0.5-0.5,0.9-0.7c0.4-0.2,0.8-0.3,1.3-0.3c1.4,0,2,0.7,2,2.1
			c0,0.6-0.1,1.3-0.3,2.2c-0.2,0.9-0.4,1.9-0.6,2.8l0.9-0.4c0.2,0.2,0.3,0.4,0.4,0.6c0.1,0.2,0.2,0.5,0.2,0.8
			c-0.1,0.2-0.2,0.4-0.5,0.6c-0.2,0.3-0.6,0.5-0.9,0.7c-0.4,0.2-0.7,0.3-1.1,0.3c-0.4,0-0.8-0.1-1-0.4c-0.2-0.3-0.4-0.6-0.4-1
			c0-0.1,0-0.3,0.1-0.7c0.1-0.3,0.1-0.6,0.1-0.7L63,50.4c-0.3,0.9-0.6,1.7-1.1,2.1c-0.5,0.5-1,0.7-1.6,0.7c-0.8,0-1.4-0.3-1.8-0.9
			c-0.3-0.6-0.5-1.3-0.5-2.1c0-1.6,0.1-2.9,0.2-4L57.4,46.1z"/>
		<path class="st0" d="M68.3,46.2L67.4,46c-0.1-0.3-0.1-0.5-0.1-0.7c0-0.2,0-0.4,0-0.7l0-0.2c0-0.1,0-0.1,0-0.2l1.1-0.3
			c0-0.3,0.1-0.7,0.2-1.1c0.1-0.4,0.2-0.7,0.3-0.9c0.2-0.1,0.4-0.2,0.6-0.3c0.2-0.1,0.5-0.1,0.8-0.1c0.2,0,0.5,0,0.7,0.1
			c0.2,0,0.4,0.1,0.6,0.2c0,0.2,0,0.4,0,0.6c0,0.4,0,0.8-0.1,1.3l1.4-0.3c0.2,0.3,0.3,0.7,0.3,1.1c0,0.3,0,0.5-0.1,0.8
			c-0.1,0.2-0.2,0.5-0.3,0.8c-0.3,0.1-0.8,0.1-1.4,0.1c-0.1,0.9-0.2,2.2-0.5,3.9l0,0.3l0,0l1.9-0.6c0.4,0.3,0.6,0.8,0.7,1.5
			c0,0-0.2,0.2-0.5,0.5c-0.3,0.3-0.8,0.6-1.3,0.9c-0.5,0.3-1.1,0.4-1.7,0.4c-1,0-1.6-0.7-1.7-2c0-0.7-0.1-1.6-0.1-2.7
			C68.2,47.7,68.2,46.9,68.3,46.2z"/>
		<path class="st0" d="M73.9,46.1c-0.1-0.3-0.1-0.5-0.1-0.7c0-0.2,0-0.4,0-0.7l0-0.2c0.1-0.1,0.3-0.3,0.5-0.4
			c0.2-0.1,0.5-0.3,0.8-0.4c0.3-0.1,0.6-0.2,1-0.2c0.7,0,1.3,0.2,1.6,0.5c0.3,0.3,0.5,0.9,0.5,1.6c0,0.4-0.1,1-0.2,1.7
			c-0.1,0.7-0.3,1.4-0.4,2c-0.2,0.7-0.3,1.1-0.4,1.4l0,0l1.2-0.4c0.2,0.2,0.4,0.4,0.5,0.6c0.1,0.2,0.2,0.5,0.2,0.8
			c0,0-0.1,0.2-0.3,0.5c-0.2,0.3-0.5,0.5-0.9,0.8c-0.4,0.2-0.8,0.4-1.3,0.4c-0.5,0-0.9-0.1-1.2-0.4c-0.3-0.3-0.5-0.8-0.5-1.4
			c0-0.8,0-1.6,0.1-2.5c0-0.9,0.1-1.8,0.2-2.6L73.9,46.1z M74.8,40.4c0.3-0.3,0.8-0.4,1.5-0.4c0.7,0,1.1,0.1,1.5,0.4
			c0.3,0.3,0.5,0.7,0.5,1.2c0,0.3-0.1,0.5-0.3,0.7c-0.2,0.2-0.4,0.4-0.7,0.5c-0.3,0.1-0.6,0.2-0.9,0.2c-0.3,0-0.7-0.1-1-0.2
			c-0.3-0.2-0.5-0.3-0.7-0.6c-0.2-0.2-0.3-0.5-0.3-0.7C74.3,41.1,74.4,40.7,74.8,40.4z"/>
		<path class="st0" d="M83.2,47.8c0.4,0.1,0.7,0.1,1,0.2v-0.3c0-0.2,0-0.4,0-0.6c0-0.2,0-0.3,0-0.4c0-0.1-0.2-0.2-0.4-0.3
			c-0.2-0.1-0.6-0.1-1.1-0.1c-0.3,0-0.6,0-1,0.1c-0.3,0.1-0.7,0.2-1.1,0.3c-0.2-0.4-0.4-0.7-0.5-1c-0.1-0.3-0.2-0.7-0.2-1
			c0-0.1,0-0.2,0-0.3c0.9-0.7,2-1,3.3-1c0.7,0,1.4,0.1,2,0.3c0.6,0.2,1.1,0.5,1.4,1c0.4,0.5,0.6,1.2,0.6,2.1c0,0.9-0.1,1.8-0.3,2.6
			s-0.3,1.3-0.3,1.3l1.1-0.5c0.2,0.2,0.3,0.4,0.4,0.6c0.1,0.2,0.2,0.5,0.2,0.8c-0.1,0.2-0.2,0.4-0.5,0.6c-0.2,0.3-0.6,0.5-0.9,0.7
			s-0.7,0.3-1.1,0.3c-0.4,0-0.8-0.1-1-0.4c-0.2-0.3-0.3-0.6-0.3-1c0-0.2,0-0.5,0.1-0.7L84.4,51c-0.1,0.9-0.5,1.4-0.9,1.7
			s-1,0.5-1.6,0.5c-0.4,0-0.7-0.1-1.1-0.3c-0.4-0.2-0.6-0.5-0.9-1c-0.2-0.4-0.3-0.9-0.3-1.5c0-0.9,0.2-1.6,0.7-2
			c0.4-0.5,1.1-0.7,1.9-0.7C82.4,47.7,82.8,47.8,83.2,47.8z M83.5,50.6c0.2-0.1,0.3-0.3,0.5-0.4c0.1-0.2,0.2-0.3,0.3-0.5l0-0.2
			c-0.3,0-0.6-0.1-0.9-0.1c-0.3,0-0.5,0-0.6,0.1c-0.2,0.2-0.3,0.4-0.3,0.6c0,0.2,0,0.3,0.1,0.5c0.1,0.1,0.2,0.2,0.4,0.2
			C83.2,50.8,83.3,50.7,83.5,50.6z"/>
	</g>
	<g>
		<path class="st1" d="M43.6,36.1c0,0,0.7,0.8,1.3,0.8s1.4-0.6,1.4-1S45,35.5,45,35.5L43.6,36.1z"/>
		<g>
			<path class="st2" d="M41.2,27.2C41,26,39.9,25.7,39.7,27c-0.2,1.3-0.4,1.8,0.3,2.1c0.7,0.3,1.9,0.5,1.7,0
				C41.7,29,41.3,28.3,41.2,27.2z M40.1,27.9c-0.1,0-0.2-0.1-0.2-0.2s0.1-0.2,0.2-0.2s0.2,0.1,0.2,0.2S40.1,27.9,40.1,27.9z
				 M40.5,27.7c-0.2,0-0.3-0.1-0.3-0.3c0-0.2,0.1-0.3,0.3-0.3s0.3,0.1,0.3,0.3C40.8,27.5,40.7,27.7,40.5,27.7z"/>
			<path class="st2" d="M49.9,29c0.7-0.3,0.5-0.8,0.3-2.1c-0.2-1.3-1.3-1-1.4,0.2c-0.1,1.2-0.6,1.9-0.6,1.9
				C48,29.5,49.2,29.4,49.9,29z M49.9,27.6c0.1,0,0.2,0.1,0.2,0.2s-0.1,0.2-0.2,0.2s-0.2-0.1-0.2-0.2S49.8,27.6,49.9,27.6z M49.4,27
				c0.2,0,0.3,0.1,0.3,0.3c0,0.2-0.1,0.3-0.3,0.3s-0.3-0.1-0.3-0.3C49.1,27.2,49.3,27,49.4,27z"/>
			<path class="st2" d="M63,0.8C62.8,0.2,62.6,0,61.6,0c-0.7,0-0.9,0.2-1.1,0.8c-0.1,0.6,0.1,1.5-0.9,1.3c-0.2,0-0.3,0.3-0.3,0.6
				c0,1-0.2,2.1,0.3,3.1C59.9,6,60,6.5,59.9,6.9c-0.5,2.5-0.8,5.2-2.7,6.9C57.1,13.9,57,14,57,14c-0.4,0.3-0.8,0.8-1.1,0.4
				c-0.3-0.3,0.2-0.8,0.3-1.1c0.3-0.8,0.5-1.7,0.4-2.6c-0.1-1.2-0.2-2.5-0.4-3.7c-0.3-1.9-1.9-3.2-3.8-3c-1.6,0.2-2.7,1.6-2.7,3.7
				c0,0.7,0.1,1.4-0.3,2.1c-0.4,0.7-0.1,1.5,0.5,1.9c0.8,0.7,1.2,1.8,1.8,2.6c0.4,0.5,0.2,0.8-0.3,0.9c-0.2,0.1-0.5,0.2-0.7,0.1
				c-1.6-0.2-2.8,0.8-3.7,2.2c-0.7,1.1-1.7,2-2,3.4c-0.1,0.3-0.2,0.4-0.3,0.5c-0.1,0-0.2,0-0.3,0c-0.1-0.1-0.2-0.2-0.4-0.4
				c-0.7-1.3-1.7-2.2-2.4-3.5c-0.9-1.5-2.3-2.4-4-1.9c-0.4,0.1-0.8,0.3-1.2-0.1c0.7-0.8,1.2-1.8,1.7-2.8c0.8-1.7,1.3-3.8,0.8-5.8
				c-0.5-1.7-1.9-2.3-3.2-2.6C33,3.8,30.9,6.3,31,9.3c0.1,2.1,0.4,4.1,1.5,5.9c0.1,0.1,0.1,0.3,0.1,0.4c-0.1,0.2-0.3,0.2-0.4,0.1
				c-0.2-0.1-0.4-0.1-0.6-0.2c-1.3-1.1-3-1.7-3.5-3.8c-0.2-0.7-0.6-1.3-1-1.8c-1-1.5-1.4-3.1-1.4-5c0-0.5,0.4-2.2-1-1.1
				c-0.2,0.2-0.3-0.2-0.4-0.4c-0.2-0.6-0.3-1-1-0.9c-0.7,0-1,0.4-1.2,1c-0.4,1.6,0,3,1,4c0.8,0.9,1.2,1.9,1.4,3.1
				c0.4,2.2,1,4.3,2.3,5.9c0.1,0.2,0.3,0.4,0.3,0.6c-0.2,1.4,0.6,2,1.4,2.4c0.8,0.4,0.9,1.1,0.8,2c-0.2,3.4-2.3,5.3-4,7.6
				c-0.2,0.3-0.5,0.5-0.8,0.8c-0.3,0.3-0.4,0.5-0.4,0.8l14.1,6.5c0,0,0,0,0,0c1.5-0.3,1.9-0.4,1.7-1.4c-0.7-0.4-1.2-1-1.5-1.9
				c-0.6-1.5-0.4-3.1,0-4.6c0-0.1,0.1-0.3,0.1-0.4c0.2-1,0.4-1.9,0.4-2.8c-0.1-0.5-0.2-0.9-0.3-1.4c-0.1-0.4-0.1-0.9-0.3-1.3
				c-0.7-1.4-0.3-2.8-0.2-4.1c0-0.1,0.4-0.4,0.5-0.3c0.3,0.1,0.7,0.3,0.8,0.6c0.5,0.7,0.9,1.5,1.4,2.3c0.1,0.2,0.2,0.4,0.3,0.5
				c0,0.1,0.1,0.1,0.1,0.2c0.1,0,0.1-0.1,0.2-0.1c2.7,5.6,1.2,8.4,0.6,9.7c-0.6,1.3-0.8,3.1,0.8,3.7c1.5,0.6,2-0.4,2-0.4
				c0,0,0.5,1,2,0.4c1.6-0.6,1.4-2.4,0.8-3.7c-0.6-1.3-2.2-3.9,0.7-9.6c0,0,0.1,0,0.1,0.1c0.1-0.2,0.2-0.4,0.3-0.5
				c0.5-0.8,0.9-1.7,1.5-2.5c0.1-0.2,0.4-0.4,0.6-0.6c0.5-0.2,0.8,0,0.8,0.5c0.1,1.5,0.3,3-0.4,4.4c-0.2,0.3-0.1,0.7-0.2,1
				c-0.1,0.4,0,0.8-0.2,1.1c0,0.1-0.1,0.1-0.1,0.2c0,0.5,0,1,0,1.4c0,0.1,0.1,0.3,0.1,0.4c0.5,1.4,0.9,2.8,0.8,4.3
				c-0.1,1.9-1.1,3.3-2.9,3.9c-0.2,0.1-0.4,0.1-0.6,0.2c-0.1,0.3-0.2,0.6-0.3,0.9c-0.2,0.6,6.9-1.2,6.9-1.2c0,0,0-0.1,0.1-0.1
				c0.4-0.9,0.7-1,1.3-0.4l5.9-2.5c-0.4-0.5-0.8-1-1.2-1.5c-1.2-1.4-1.6-3-1.4-4.9c0.2-2.1,0.5-4.1,0.1-6.2c-0.1-0.7,0-1.2,0.5-1.7
				c0.6-0.5,0.9-1.3,1.3-2c0.1-0.3,0.3-0.6,0.2-0.9c-0.6-0.9-0.1-1.7,0.1-2.6c0.4-1.8,0.4-3.6,0.4-5.4c0-0.6,0-1.2,0.3-1.7
				C63.4,4.4,63.4,2.6,63,0.8z M45,21.7L45,21.7C45,21.8,45,21.7,45,21.7L45,21.7z M46.8,33.8c0,0.1,0,0.5-0.4,1
				c-0.3,0.3-0.8,0.5-1.5,0.5c-0.7,0-1.2-0.2-1.5-0.5c-0.4-0.4-0.3-0.9-0.3-1l0.6,0.1c0,0,0,0.3,0.2,0.5c0.2,0.2,0.5,0.3,1,0.3
				c0.5,0,0.9-0.1,1.1-0.3c0.2-0.2,0.2-0.5,0.2-0.5L46.8,33.8z"/>
			<path class="st2" d="M19.6,37.3l0-0.1c0,0,0,0,0,0C19.6,37.2,19.6,37.3,19.6,37.3z"/>
		</g>
	</g>
	<g>
		<path class="st3" d="M3.4,60.1c0,0.2,0,0.3-0.1,0.4c-0.3,0.6-0.9,0.9-1.7,0.9c-0.3,0-0.6,0-1-0.1c0,0,0,0,0,0c0,0,0,0.1,0,0.1
			c0,0.1-0.1,0.1-0.1,0.1l-0.1,0c-0.1,0-0.1,0-0.2-0.1c0-0.2,0-0.2,0-0.3c0,0-0.1,0-0.2-0.1C0,61,0,61,0,60.9c0-0.1,0-0.1,0.1-0.1
			c0.1,0,0.1,0,0.1,0c0,0,0,0,0-0.1c0-0.1,0-0.2,0-0.4c0-0.2,0-0.3,0-0.4v-0.3c-0.1,0-0.2-0.1-0.2-0.1c0-0.1,0-0.1,0.1-0.2v-2.5
			c0,0,0-0.1,0.1-0.1c0.1-0.1,0.1-0.1,0.1-0.1c0.1,0,0.1,0,0.1,0c0,0,0.1,0.1,0.1,0.1c-0.1,0.5-0.1,0.8-0.1,1l0,0
			c0.3-0.9,0.8-1.3,1.5-1.3c0.4,0,0.7,0.1,0.9,0.4c0.2,0.3,0.3,0.6,0.3,1c0,0.3-0.1,0.6-0.2,0.9c-0.2,0.3-0.4,0.5-0.6,0.6
			C3.1,59.3,3.4,59.6,3.4,60.1z M3,60.1c0-0.3-0.3-0.4-0.8-0.5c-0.2,0-0.6-0.1-1.1-0.1c-0.2,0-0.4,0-0.5,0c0,0.2,0,0.5,0,1
			c0,0.1,0,0.2,0,0.4c0.2,0.1,0.6,0.2,0.9,0.2c0.3,0,0.6-0.1,0.9-0.3C2.8,60.6,3,60.4,3,60.1z M2.9,57.7c0-0.7-0.3-1.1-0.8-1.1
			c-0.4,0-0.7,0.2-1,0.7c-0.3,0.4-0.4,0.8-0.4,1.2v0.7c0,0,0.2,0,0.6,0c0.6,0,1-0.1,1.2-0.3C2.7,58.7,2.9,58.3,2.9,57.7z"/>
		<path class="st3" d="M7.1,58.8c0,0,0,0.1,0,0.1C7,59,7,59.1,6.9,59.1c0,0-0.1,0-0.1-0.1c0-0.3-0.1-0.5-0.4-0.5
			c-0.2,0-0.3,0.3-0.5,0.9c-0.1,0.2-0.1,0.5-0.1,0.9c0,0.5,0,0.7,0,0.8c0,0,0,0,0,0.1c0,0,0,0.1,0,0.1c0,0.1-0.1,0.2-0.2,0.2
			c-0.2,0-0.3-0.1-0.3-0.3c0,0,0-0.1,0-0.1c0,0,0-0.1,0-0.1c0-0.3,0-0.7,0-1.2c0-0.5,0-1,0-1.2c0-0.1,0-0.2,0.1-0.2c0,0,0.1,0,0.2,0
			c0.1,0,0.2,0,0.2,0.1c0,0.1,0,0.2,0,0.3c0.1-0.2,0.2-0.3,0.2-0.3c0.1-0.1,0.2-0.2,0.3-0.2c0.1,0,0.2,0,0.3,0.1
			c0,0,0.1,0.1,0.2,0.2C7.1,58.7,7.1,58.7,7.1,58.8z"/>
		<path class="st3" d="M9.7,58.5c0,0.1,0,0.2-0.1,0.4c0,0.2-0.1,0.3-0.1,0.4V61c0,0.1,0,0.3,0.1,0.4c0,0,0,0.1-0.1,0.1
			c-0.2,0-0.4-0.1-0.4-0.4v-2.7c0.1,0,0.1-0.1,0.2-0.1c0.1,0,0.1,0,0.2,0.1C9.6,58.4,9.7,58.5,9.7,58.5z M9.8,57.4
			c0,0.2-0.1,0.3-0.2,0.3c-0.1,0-0.2,0-0.3-0.1c-0.1-0.1-0.1-0.1-0.1-0.2c0-0.2,0.1-0.3,0.3-0.3c0.1,0,0.2,0,0.3,0.1
			C9.8,57.2,9.8,57.3,9.8,57.4z"/>
		<path class="st3" d="M14.2,61.5c0,0.1-0.1,0.1-0.1,0.1c-0.1,0-0.1,0-0.3-0.1v-0.1c0,0,0-0.1,0-0.2s0-0.2,0-0.2
			c0-1.6-0.2-2.5-0.6-2.5c-0.1,0-0.3,0.1-0.4,0.3c-0.4,0.5-0.6,1.1-0.6,1.8c0,0.1,0,0.2,0,0.4c0,0.2,0,0.3,0,0.4
			c0,0.1-0.1,0.1-0.2,0.1c-0.2,0-0.3-0.2-0.3-0.5v-1.7c0,0,0-0.1,0-0.2c0-0.1,0-0.1,0-0.2c0-0.1,0-0.2,0-0.3c0-0.1,0-0.2,0-0.3
			c0,0,0-0.1,0.1-0.1c0.1-0.1,0.1-0.1,0.1-0.1c0.1,0,0.1,0,0.2,0.1c0,0.3,0,0.5,0,0.6c0,0.1,0,0.1,0,0.2c0,0,0.1-0.1,0.2-0.2
			c0.1-0.2,0.2-0.3,0.2-0.4c0.1-0.1,0.3-0.2,0.4-0.2c0.1,0,0.1,0,0.3,0.1c0.3,0.1,0.5,0.3,0.6,0.5c0.2,0.4,0.3,0.9,0.3,1.6V61.5z"/>
		<path class="st3" d="M18.6,60.7c0,0.1-0.1,0.3-0.3,0.5c-0.2,0.2-0.4,0.3-0.5,0.4c-0.2,0.1-0.3,0.1-0.4,0.1c-0.4,0-0.6-0.1-0.8-0.4
			c-0.2-0.2-0.3-0.5-0.3-0.9c0-0.4,0.1-0.8,0.2-1.3c0.2-0.6,0.5-0.9,0.8-0.9c0.1,0,0.3,0.1,0.6,0.2c0.2,0.1,0.4,0.3,0.4,0.4
			c0,0.2,0.1,0.3,0.1,0.5c0,0.5-0.1,0.8-0.2,0.8c0,0-0.1,0-0.1,0c-0.1,0-0.1-0.1-0.1-0.1c0,0,0,0,0-0.1c0,0,0-0.1,0-0.1
			c0-0.1,0-0.2,0-0.4c0-0.6-0.1-0.8-0.4-0.8c-0.3,0-0.5,0.3-0.7,0.8c-0.1,0.4-0.2,0.8-0.2,1.1c0,0.3,0,0.5,0.1,0.7
			c0.1,0.2,0.3,0.4,0.5,0.4c0.1,0,0.3-0.1,0.5-0.2c0.2-0.1,0.3-0.3,0.4-0.4c0-0.1,0-0.1,0.1-0.2c0,0,0.1-0.1,0.1-0.1
			c0,0,0.1,0,0.1,0.1C18.6,60.6,18.6,60.6,18.6,60.7z"/>
		<path class="st3" d="M22.9,61.7c0,0.1-0.1,0.1-0.2,0.1c-0.1,0-0.2,0-0.2-0.1c0,0,0-0.1,0-0.3c0,0,0-0.1,0-0.1
			c-0.3,0.2-0.6,0.3-0.9,0.3c-0.2,0-0.4-0.1-0.6-0.2c-0.2-0.1-0.4-0.3-0.4-0.5c0-0.2,0.1-0.4,0.4-0.6c0.3-0.2,0.5-0.3,0.7-0.3h0.7
			c0,0,0-0.1,0-0.2c0-0.3,0-0.6-0.1-0.8c-0.1-0.3-0.3-0.4-0.5-0.4c-0.2,0-0.4,0.1-0.5,0.4c-0.1,0.2-0.2,0.4-0.2,0.6c0,0,0,0,0,0
			c0,0,0,0,0,0c0,0,0,0.1-0.1,0.1c0,0-0.1,0-0.2-0.1c-0.1-0.1-0.1-0.1-0.1-0.2c0-0.1,0-0.3,0.1-0.5c0.1-0.2,0.2-0.4,0.3-0.5
			c0.1-0.1,0.3-0.2,0.5-0.2c0.3,0,0.5,0.1,0.8,0.3c0.3,0.2,0.4,0.4,0.4,0.7L22.9,61.7z M22.5,60.5c0-0.2-0.2-0.3-0.5-0.3
			c-0.2,0-0.5,0-0.6,0.1c-0.2,0.1-0.4,0.3-0.4,0.5c0,0.1,0.1,0.2,0.2,0.3c0.1,0.1,0.2,0.1,0.4,0.1c0.2,0,0.4-0.1,0.6-0.2
			C22.4,60.9,22.5,60.7,22.5,60.5z"/>
		<path class="st3" d="M27.4,56.7c0,0.1,0,0.3,0,0.4c0,0.2-0.1,0.4-0.1,0.4c0,0.2,0,0.7-0.1,1.5c0,0.8,0,1.2,0,1.3
			c0,0.5,0,0.9,0.1,1.1c0,0.1-0.1,0.1-0.1,0.1c0,0-0.1,0-0.2-0.1c-0.1,0-0.1-0.1-0.1-0.1c0-0.1,0-0.3,0-0.5
			c-0.3,0.4-0.6,0.6-0.8,0.6c-0.3,0-0.6-0.1-0.7-0.4C25.1,61,25,60.7,25,60.3c0-0.4,0.1-0.8,0.2-1.3c0.2-0.6,0.5-0.9,0.8-0.9
			c0.1,0,0.3,0.1,0.4,0.2c0,0,0.1,0.1,0.4,0.3c0-0.3,0.1-1.1,0.1-2.2c0,0,0.1-0.1,0.1-0.1c0.1,0,0.2,0,0.2,0.1
			C27.3,56.5,27.4,56.6,27.4,56.7z M26.8,59.5c0-0.2,0-0.4-0.1-0.6c-0.1-0.2-0.3-0.3-0.5-0.3c-0.2,0-0.4,0.3-0.6,0.8
			c-0.1,0.4-0.2,0.7-0.2,1.1c0,0.2,0,0.4,0.1,0.6c0.1,0.2,0.2,0.3,0.4,0.3c0.3,0,0.5-0.2,0.7-0.7C26.8,60.2,26.8,59.9,26.8,59.5z"/>
		<path class="st3" d="M31.6,60.7c0,0.2-0.1,0.4-0.4,0.6c-0.3,0.2-0.5,0.2-0.7,0.2c-0.7,0-1-0.4-1-1.3c0-0.4,0.1-0.8,0.2-1.2
			c0.2-0.6,0.4-0.8,0.7-0.8c0.2,0,0.5,0.1,0.8,0.4c0.3,0.2,0.4,0.5,0.4,0.7c0,0.3-0.1,0.6-0.4,0.8c-0.2,0.2-0.5,0.3-0.8,0.3
			c0,0-0.1,0-0.2-0.1c-0.1,0-0.2-0.1-0.2-0.1c-0.1,0-0.1,0-0.1,0.1c0,0.6,0.2,0.9,0.6,0.9c0.2,0,0.4-0.1,0.5-0.2
			c0.1-0.1,0.2-0.2,0.3-0.4c0.1-0.1,0.2-0.2,0.2-0.2C31.6,60.5,31.6,60.6,31.6,60.7z M31.1,59.3c0-0.2,0-0.3-0.1-0.5
			c-0.1-0.2-0.2-0.2-0.4-0.2c-0.2,0-0.4,0.1-0.5,0.4c-0.1,0.2-0.2,0.4-0.2,0.6c0,0.1,0,0.3,0.1,0.4c0.1,0.1,0.2,0.1,0.4,0.1
			c0.2,0,0.4-0.1,0.5-0.3C31,59.7,31.1,59.5,31.1,59.3z"/>
		<path class="st3" d="M34.3,58.5c0,0.1,0,0.2-0.1,0.4c0,0.2-0.1,0.3-0.1,0.4V61c0,0.1,0,0.3,0.1,0.4c0,0,0,0.1-0.1,0.1
			c-0.2,0-0.4-0.1-0.4-0.4v-2.7c0.1,0,0.1-0.1,0.2-0.1c0.1,0,0.1,0,0.2,0.1C34.3,58.4,34.3,58.5,34.3,58.5z M34.5,57.4
			c0,0.2-0.1,0.3-0.2,0.3c-0.1,0-0.2,0-0.3-0.1c-0.1-0.1-0.1-0.1-0.1-0.2c0-0.2,0.1-0.3,0.3-0.3c0.1,0,0.2,0,0.3,0.1
			C34.4,57.2,34.5,57.3,34.5,57.4z"/>
		<path class="st3" d="M38.2,58.8c0,0,0,0.1,0,0.1C38.1,59,38,59.1,38,59.1c0,0-0.1,0-0.1-0.1c0-0.3-0.1-0.5-0.4-0.5
			c-0.2,0-0.3,0.3-0.5,0.9c-0.1,0.2-0.1,0.5-0.1,0.9c0,0.5,0,0.7,0,0.8c0,0,0,0,0,0.1c0,0,0,0.1,0,0.1c0,0.1-0.1,0.2-0.2,0.2
			c-0.2,0-0.3-0.1-0.3-0.3c0,0,0-0.1,0-0.1c0,0,0-0.1,0-0.1c0-0.3,0-0.7,0-1.2c0-0.5,0-1,0-1.2c0-0.1,0-0.2,0.1-0.2c0,0,0.1,0,0.2,0
			c0.1,0,0.2,0,0.2,0.1c0,0.1,0,0.2,0,0.3c0.1-0.2,0.2-0.3,0.2-0.3c0.1-0.1,0.2-0.2,0.3-0.2c0.1,0,0.2,0,0.3,0.1
			c0,0,0.1,0.1,0.2,0.2C38.1,58.7,38.2,58.7,38.2,58.8z"/>
		<path class="st3" d="M42.1,61.7c0,0.1-0.1,0.1-0.2,0.1c-0.1,0-0.2,0-0.2-0.1c0,0,0-0.1,0-0.3c0,0,0-0.1,0-0.1
			c-0.3,0.2-0.6,0.3-0.9,0.3c-0.2,0-0.4-0.1-0.6-0.2c-0.2-0.1-0.4-0.3-0.4-0.5c0-0.2,0.1-0.4,0.4-0.6c0.3-0.2,0.5-0.3,0.7-0.3h0.7
			c0,0,0-0.1,0-0.2c0-0.3,0-0.6-0.1-0.8c-0.1-0.3-0.3-0.4-0.5-0.4c-0.2,0-0.4,0.1-0.5,0.4c-0.1,0.2-0.2,0.4-0.2,0.6c0,0,0,0,0,0
			c0,0,0,0,0,0c0,0,0,0.1-0.1,0.1c0,0-0.1,0-0.2-0.1c-0.1-0.1-0.1-0.1-0.1-0.2c0-0.1,0-0.3,0.1-0.5c0.1-0.2,0.2-0.4,0.3-0.5
			c0.1-0.1,0.3-0.2,0.5-0.2c0.3,0,0.5,0.1,0.8,0.3c0.3,0.2,0.4,0.4,0.4,0.7L42.1,61.7z M41.7,60.5c0-0.2-0.2-0.3-0.5-0.3
			c-0.2,0-0.5,0-0.6,0.1c-0.2,0.1-0.4,0.3-0.4,0.5c0,0.1,0.1,0.2,0.2,0.3c0.1,0.1,0.2,0.1,0.4,0.1c0.2,0,0.4-0.1,0.6-0.2
			C41.6,60.9,41.7,60.7,41.7,60.5z"/>
		<path class="st3" d="M49.6,60.7c0,0.2-0.1,0.4-0.4,0.6c-0.3,0.2-0.5,0.2-0.7,0.2c-0.7,0-1-0.4-1-1.3c0-0.4,0.1-0.8,0.2-1.2
			c0.2-0.6,0.4-0.8,0.7-0.8c0.2,0,0.5,0.1,0.8,0.4c0.3,0.2,0.4,0.5,0.4,0.7c0,0.3-0.1,0.6-0.4,0.8c-0.2,0.2-0.5,0.3-0.8,0.3
			c0,0-0.1,0-0.2-0.1c-0.1,0-0.2-0.1-0.2-0.1c-0.1,0-0.1,0-0.1,0.1c0,0.6,0.2,0.9,0.6,0.9c0.2,0,0.4-0.1,0.5-0.2
			c0.1-0.1,0.2-0.2,0.3-0.4c0.1-0.1,0.2-0.2,0.2-0.2C49.5,60.5,49.6,60.6,49.6,60.7z M49.1,59.3c0-0.2,0-0.3-0.1-0.5
			c-0.1-0.2-0.2-0.2-0.4-0.2c-0.2,0-0.4,0.1-0.5,0.4c-0.1,0.2-0.2,0.4-0.2,0.6c0,0.1,0,0.3,0.1,0.4c0.1,0.1,0.2,0.1,0.4,0.1
			c0.2,0,0.4-0.1,0.5-0.3C49,59.7,49.1,59.5,49.1,59.3z"/>
		<path class="st3" d="M55.6,56.7c0,0,0,0-0.1,0.1c0,0,0,0.2-0.1,0.4c-0.1,1-0.2,2-0.2,2.8c0,0.7,0.1,1.2,0.2,1.4
			c-0.1,0.1-0.2,0.1-0.2,0.1c-0.2,0-0.3-0.2-0.4-0.5c0-0.3-0.1-0.5-0.1-0.7l0.1-3.5c0-0.1,0-0.1,0.1-0.2c0.1-0.1,0.2-0.1,0.2-0.1
			c0,0,0.1,0,0.2,0.1C55.6,56.6,55.6,56.6,55.6,56.7z"/>
		<path class="st3" d="M60.1,61.5c0,0.1-0.1,0.1-0.1,0.1c-0.1,0-0.1,0-0.3-0.1v-0.1c0,0,0-0.1,0-0.2s0-0.2,0-0.2
			c0-1.6-0.2-2.5-0.6-2.5c-0.1,0-0.3,0.1-0.4,0.3c-0.4,0.5-0.6,1.1-0.6,1.8c0,0.1,0,0.2,0,0.4c0,0.2,0,0.3,0,0.4
			c0,0.1-0.1,0.1-0.2,0.1c-0.2,0-0.3-0.2-0.3-0.5v-1.7c0,0,0-0.1,0-0.2c0-0.1,0-0.1,0-0.2c0-0.1,0-0.2,0-0.3c0-0.1,0-0.2,0-0.3
			c0,0,0-0.1,0.1-0.1c0.1-0.1,0.1-0.1,0.1-0.1c0.1,0,0.1,0,0.2,0.1c0,0.3,0,0.5,0,0.6c0,0.1,0,0.1,0,0.2c0,0,0.1-0.1,0.2-0.2
			c0.1-0.2,0.2-0.3,0.2-0.4c0.1-0.1,0.3-0.2,0.4-0.2c0.1,0,0.1,0,0.3,0.1c0.3,0.1,0.5,0.3,0.6,0.5c0.2,0.4,0.3,0.9,0.3,1.6V61.5z"/>
		<path class="st3" d="M63.5,59.1c0,0-0.1,0.1-0.3,0.1c-0.2,0-0.3,0-0.3,0.1c0,0.1,0,0.3,0,0.8c0,0.4,0,0.6,0,0.8c0,0.1,0,0.1,0,0.3
			c0,0.1,0,0.2,0,0.3c0,0,0,0.1-0.1,0.1c0,0-0.1,0.1-0.1,0.1c-0.1,0-0.2-0.1-0.2-0.3c0-0.1-0.1-0.3-0.1-0.4c0-0.7,0-1.2,0-1.5
			c0,0-0.1,0-0.3,0c-0.2,0-0.2,0-0.2-0.2c0-0.2,0.2-0.3,0.6-0.3l0.1-1.3c0,0,0,0,0-0.1c0,0,0-0.1,0-0.1c0,0,0-0.1,0.1-0.1
			c0,0,0.1,0,0.1,0c0.2,0,0.3,0.1,0.3,0.3c0,0.1,0,0.3-0.1,0.6c0,0.2-0.1,0.4-0.1,0.6c0,0.1,0,0.1,0,0.2l0.4,0
			c0.1,0,0.2,0.1,0.2,0.2C63.6,59,63.6,59.1,63.5,59.1z"/>
		<path class="st3" d="M67.6,60.7c0,0.2-0.1,0.4-0.4,0.6c-0.3,0.2-0.5,0.2-0.7,0.2c-0.7,0-1-0.4-1-1.3c0-0.4,0.1-0.8,0.2-1.2
			c0.2-0.6,0.4-0.8,0.7-0.8c0.2,0,0.5,0.1,0.8,0.4c0.3,0.2,0.4,0.5,0.4,0.7c0,0.3-0.1,0.6-0.4,0.8c-0.2,0.2-0.5,0.3-0.8,0.3
			c0,0-0.1,0-0.2-0.1c-0.1,0-0.2-0.1-0.2-0.1c-0.1,0-0.1,0-0.1,0.1c0,0.6,0.2,0.9,0.6,0.9c0.2,0,0.4-0.1,0.5-0.2
			c0.1-0.1,0.2-0.2,0.3-0.4c0.1-0.1,0.2-0.2,0.2-0.2C67.5,60.5,67.6,60.6,67.6,60.7z M67.1,59.3c0-0.2,0-0.3-0.1-0.5
			c-0.1-0.2-0.2-0.2-0.4-0.2c-0.2,0-0.4,0.1-0.5,0.4c-0.1,0.2-0.2,0.4-0.2,0.6c0,0.1,0,0.3,0.1,0.4c0.1,0.1,0.2,0.1,0.4,0.1
			c0.2,0,0.4-0.1,0.5-0.3C67,59.7,67.1,59.5,67.1,59.3z"/>
		<path class="st3" d="M71.2,58.8c0,0,0,0.1,0,0.1c-0.1,0.1-0.1,0.1-0.2,0.1c0,0-0.1,0-0.1-0.1c0-0.3-0.1-0.5-0.4-0.5
			c-0.2,0-0.3,0.3-0.5,0.9C70,59.6,70,59.9,70,60.3c0,0.5,0,0.7,0,0.8c0,0,0,0,0,0.1c0,0,0,0.1,0,0.1c0,0.1-0.1,0.2-0.2,0.2
			c-0.2,0-0.3-0.1-0.3-0.3c0,0,0-0.1,0-0.1c0,0,0-0.1,0-0.1c0-0.3,0-0.7,0-1.2c0-0.5,0-1,0-1.2c0-0.1,0-0.2,0.1-0.2c0,0,0.1,0,0.2,0
			c0.1,0,0.2,0,0.2,0.1c0,0.1,0,0.2,0,0.3c0.1-0.2,0.2-0.3,0.2-0.3c0.1-0.1,0.2-0.2,0.3-0.2c0.1,0,0.2,0,0.3,0.1
			c0,0,0.1,0.1,0.2,0.2C71.2,58.7,71.2,58.7,71.2,58.8z"/>
		<path class="st3" d="M75.2,61.7c0,0.1-0.1,0.1-0.2,0.1c-0.1,0-0.2,0-0.2-0.1c0,0,0-0.1,0-0.3c0,0,0-0.1,0-0.1
			c-0.3,0.2-0.6,0.3-0.9,0.3c-0.2,0-0.4-0.1-0.6-0.2c-0.2-0.1-0.4-0.3-0.4-0.5c0-0.2,0.1-0.4,0.4-0.6c0.3-0.2,0.5-0.3,0.7-0.3h0.7
			c0,0,0-0.1,0-0.2c0-0.3,0-0.6-0.1-0.8c-0.1-0.3-0.3-0.4-0.5-0.4c-0.2,0-0.4,0.1-0.5,0.4c-0.1,0.2-0.2,0.4-0.2,0.6c0,0,0,0,0,0
			c0,0,0,0,0,0c0,0,0,0.1-0.1,0.1c0,0-0.1,0-0.2-0.1c-0.1-0.1-0.1-0.1-0.1-0.2c0-0.1,0-0.3,0.1-0.5c0.1-0.2,0.2-0.4,0.3-0.5
			c0.1-0.1,0.3-0.2,0.5-0.2c0.3,0,0.5,0.1,0.8,0.3c0.3,0.2,0.4,0.4,0.4,0.7L75.2,61.7z M74.8,60.5c0-0.2-0.2-0.3-0.5-0.3
			c-0.2,0-0.5,0-0.6,0.1c-0.2,0.1-0.4,0.3-0.4,0.5c0,0.1,0.1,0.2,0.2,0.3c0.1,0.1,0.2,0.1,0.4,0.1c0.2,0,0.4-0.1,0.6-0.2
			C74.7,60.9,74.8,60.7,74.8,60.5z"/>
		<path class="st3" d="M79.5,60.7c0,0.1-0.1,0.3-0.3,0.5c-0.2,0.2-0.4,0.3-0.5,0.4s-0.3,0.1-0.4,0.1c0,0.1-0.1,0.1-0.2,0.2
			c0.2,0,0.3,0.1,0.4,0.1c0.2,0,0.2,0.1,0.2,0.2c0,0.1-0.1,0.3-0.3,0.4c-0.1,0-0.2,0.1-0.5,0.2L78,62.5c0.1,0,0.2-0.1,0.3-0.1
			c0.1-0.1,0.2-0.1,0.2-0.2c0,0-0.1-0.1-0.3-0.1C78.1,62,78,62,78,62c-0.1,0-0.1,0-0.1-0.1c0-0.1,0-0.1,0.1-0.2
			c0.1,0,0.1-0.1,0.2-0.1c-0.3,0-0.6-0.2-0.7-0.4c-0.1-0.2-0.2-0.5-0.2-0.8c0-0.4,0.1-0.8,0.2-1.3c0.2-0.6,0.5-0.9,0.8-0.9
			c0.1,0,0.3,0.1,0.6,0.2c0.2,0.1,0.4,0.3,0.4,0.4c0,0.2,0.1,0.3,0.1,0.5c0,0.5-0.1,0.8-0.2,0.8c0,0-0.1,0-0.1,0
			c-0.1,0-0.1-0.1-0.1-0.1c0,0,0,0,0.1-0.1c0-0.1,0-0.2,0-0.4c0-0.6-0.1-0.8-0.4-0.8c-0.3,0-0.5,0.3-0.7,0.8
			c-0.1,0.4-0.2,0.8-0.2,1.1c0,0.3,0,0.5,0.1,0.7c0.1,0.2,0.3,0.4,0.5,0.4c0.1,0,0.3-0.1,0.5-0.2c0.2-0.1,0.3-0.3,0.4-0.4
			c0,0,0-0.1,0.1-0.2c0,0,0.1-0.1,0.1-0.1c0,0,0.1,0,0.1,0.1C79.5,60.6,79.5,60.6,79.5,60.7z"/>
		<path class="st3" d="M83.8,61.7c0,0.1-0.1,0.1-0.2,0.1c-0.1,0-0.2,0-0.2-0.1c0,0,0-0.1,0-0.3c0,0,0-0.1,0-0.1
			c-0.3,0.2-0.6,0.3-0.9,0.3c-0.2,0-0.4-0.1-0.6-0.2c-0.2-0.1-0.4-0.3-0.4-0.5c0-0.2,0.1-0.4,0.4-0.6c0.3-0.2,0.5-0.3,0.7-0.3h0.7
			c0,0,0-0.1,0-0.2c0-0.3,0-0.6-0.1-0.8c-0.1-0.3-0.3-0.4-0.5-0.4c-0.2,0-0.4,0.1-0.5,0.4c-0.1,0.2-0.2,0.4-0.2,0.6c0,0,0,0,0,0
			c0,0,0,0,0,0c0,0,0,0.1-0.1,0.1c0,0-0.1,0-0.2-0.1c-0.1-0.1-0.1-0.1-0.1-0.2c0-0.1,0-0.3,0.1-0.5c0.1-0.2,0.2-0.4,0.3-0.5
			c0.1-0.1,0.3-0.2,0.5-0.2c0.3,0,0.5,0.1,0.8,0.3c0.3,0.2,0.4,0.4,0.4,0.7L83.8,61.7z M83.7,57.6c0,0.1-0.1,0.2-0.2,0.3
			C83.2,57.9,83.1,58,83,58c-0.1,0-0.2,0-0.3-0.1c-0.1-0.1-0.2-0.1-0.3-0.1c-0.1,0-0.2,0.1-0.4,0.2c-0.1,0-0.1,0-0.1-0.1
			c0-0.1,0.1-0.2,0.2-0.2c0.2-0.1,0.3-0.1,0.4-0.1c0.1,0,0.2,0,0.3,0.1c0.1,0.1,0.2,0.1,0.3,0.1c0.1,0,0.2,0,0.3-0.1
			c0.1-0.1,0.2-0.1,0.2-0.1C83.6,57.5,83.7,57.5,83.7,57.6z M83.4,60.5c0-0.2-0.2-0.3-0.5-0.3c-0.2,0-0.5,0-0.6,0.1
			c-0.2,0.1-0.4,0.3-0.4,0.5c0,0.1,0.1,0.2,0.2,0.3c0.1,0.1,0.2,0.1,0.4,0.1c0.2,0,0.4-0.1,0.6-0.2C83.3,60.9,83.4,60.7,83.4,60.5z"
			/>
		<path class="st3" d="M88.2,60c0,0.4-0.1,0.8-0.3,1.1c-0.2,0.4-0.5,0.6-0.9,0.6c-0.4,0-0.7-0.2-0.9-0.5c-0.2-0.3-0.2-0.6-0.2-1
			c0-0.4,0.1-0.8,0.3-1.2c0.2-0.5,0.5-0.8,0.9-0.8c0.1,0,0.2,0.1,0.4,0.2C87.9,58.7,88.2,59.2,88.2,60z M87.8,60
			c0-0.3,0-0.6-0.1-0.9c-0.1-0.4-0.3-0.5-0.6-0.5c-0.3,0-0.5,0.2-0.7,0.6c-0.1,0.3-0.2,0.6-0.2,1c0,0.3,0,0.6,0.1,0.8
			c0.1,0.3,0.3,0.4,0.6,0.4c0.3,0,0.5-0.2,0.7-0.5C87.8,60.6,87.8,60.3,87.8,60z"/>
	</g>
</g>
</svg>
