<?xml version="1.0" encoding="utf-8"?>
<!-- Generator: Adobe Illustrator 19.2.0, SVG Export Plug-In . SVG Version: 6.00 Build 0)  -->
<svg version="1.1" id="Layer_1" xmlns="http://www.w3.org/2000/svg" xmlns:xlink="http://www.w3.org/1999/xlink" x="0px" y="0px"
	 viewBox="0 0 169.6 75.2" style="enable-background:new 0 0 169.6 75.2;" xml:space="preserve">
<style type="text/css">
	.st0{fill:#8E847C;}
	.st1{clip-path:url(#SVGID_2_);fill:url(#SVGID_3_);}
	.st2{clip-path:url(#SVGID_2_);}
	.st3{fill:url(#triangle36_1_);}
	.st4{fill:url(#triangle36_2_);}
	.st5{fill:url(#triangle36_3_);}
	.st6{fill:url(#triangle36_4_);}
	.st7{fill:url(#triangle36_5_);}
	.st8{fill:url(#triangle36_6_);}
	.st9{fill:url(#triangle36_7_);}
	.st10{fill:url(#triangle36_8_);}
	.st11{fill:url(#triangle36_9_);}
	.st12{fill:url(#triangle36_10_);}
	.st13{fill:url(#triangle36_11_);}
	.st14{fill:url(#triangle36_12_);}
	.st15{fill:url(#triangle36_13_);}
	.st16{fill:url(#triangle36_14_);}
	.st17{fill:url(#triangle36_15_);}
	.st18{fill:url(#triangle36_16_);}
	.st19{fill:url(#triangle36_17_);}
	.st20{fill:url(#triangle36_18_);}
	.st21{fill:url(#triangle36_19_);}
	.st22{fill:url(#triangle36_20_);}
	.st23{fill:url(#triangle36_21_);}
	.st24{fill:url(#triangle36_22_);}
	.st25{fill:url(#triangle36_23_);}
	.st26{fill:url(#triangle36_24_);}
	.st27{fill:url(#triangle36_25_);}
	.st28{fill:url(#triangle36_26_);}
	.st29{fill:url(#triangle36_27_);}
	.st30{fill:url(#triangle36_28_);}
	.st31{fill:url(#triangle36_29_);}
	.st32{fill:url(#triangle36_30_);}
	.st33{fill:url(#triangle36_31_);}
	.st34{fill:url(#triangle36_32_);}
	.st35{fill:url(#triangle36_33_);}
	.st36{fill:url(#triangle36_34_);}
	.st37{fill:url(#triangle36_35_);}
	.st38{fill:url(#triangle36_36_);}
	.st39{fill:url(#triangle36_37_);}
	.st40{fill:url(#triangle36_38_);}
	.st41{fill:url(#triangle36_39_);}
	.st42{fill:url(#triangle36_40_);}
	.st43{fill:url(#triangle36_41_);}
	.st44{fill:url(#triangle36_42_);}
	.st45{fill:url(#triangle36_43_);}
	.st46{fill:url(#triangle36_44_);}
	.st47{fill:url(#triangle36_45_);}
	.st48{fill:url(#triangle36_46_);}
	.st49{fill:url(#triangle36_47_);}
	.st50{fill:url(#triangle36_48_);}
	.st51{fill:url(#triangle36_49_);}
	.st52{fill:url(#triangle36_50_);}
	.st53{fill:url(#triangle36_51_);}
	.st54{fill:url(#triangle36_52_);}
	.st55{fill:url(#triangle36_53_);}
	.st56{fill:url(#triangle36_54_);}
	.st57{fill:url(#triangle36_55_);}
	.st58{fill:url(#triangle36_56_);}
	.st59{fill:url(#triangle36_57_);}
	.st60{fill:url(#triangle36_58_);}
	.st61{fill:url(#triangle36_59_);}
	.st62{fill:url(#triangle36_60_);}
	.st63{fill:url(#triangle36_61_);}
	.st64{fill:url(#triangle36_62_);}
	.st65{fill:url(#triangle36_63_);}
	.st66{fill:url(#triangle36_64_);}
	.st67{fill:url(#triangle36_65_);}
	.st68{fill:url(#triangle36_66_);}
	.st69{fill:url(#triangle36_67_);}
	.st70{fill:url(#triangle36_68_);}
	.st71{fill:url(#triangle36_69_);}
	.st72{fill:url(#triangle36_70_);}
	.st73{fill:url(#triangle36_71_);}
	.st74{fill:url(#triangle36_72_);}
	.st75{fill:url(#triangle36_73_);}
	.st76{fill:url(#triangle36_74_);}
	.st77{fill:url(#triangle36_75_);}
	.st78{fill:url(#triangle36_76_);}
	.st79{fill:url(#triangle36_77_);}
	.st80{fill:url(#triangle36_78_);}
	.st81{fill:url(#triangle36_79_);}
	.st82{fill:url(#triangle36_80_);}
	.st83{fill:url(#triangle36_81_);}
	.st84{fill:url(#triangle36_82_);}
	.st85{fill:url(#triangle36_83_);}
	.st86{fill:url(#triangle36_84_);}
	.st87{fill:url(#triangle36_85_);}
	.st88{fill:url(#triangle36_86_);}
	.st89{fill:url(#triangle36_87_);}
	.st90{fill:url(#triangle36_88_);}
	.st91{fill:url(#triangle36_89_);}
	.st92{fill:url(#triangle36_90_);}
	.st93{fill:url(#triangle36_91_);}
	.st94{fill:url(#triangle36_92_);}
	.st95{fill:url(#triangle36_93_);}
	.st96{fill:url(#triangle36_94_);}
	.st97{fill:url(#triangle36_95_);}
	.st98{fill:url(#triangle36_96_);}
	.st99{fill:url(#triangle36_97_);}
	.st100{fill:url(#triangle36_98_);}
	.st101{fill:url(#triangle36_99_);}
	.st102{fill:url(#triangle36_100_);}
	.st103{fill:url(#triangle36_101_);}
	.st104{fill:url(#triangle36_102_);}
	.st105{fill:url(#triangle36_103_);}
	.st106{fill:url(#triangle36_104_);}
	.st107{fill:url(#triangle36_105_);}
	.st108{fill:url(#triangle36_106_);}
	.st109{fill:url(#triangle36_107_);}
	.st110{fill:url(#triangle36_108_);}
	.st111{fill:url(#triangle36_109_);}
	.st112{fill:url(#triangle36_110_);}
	.st113{fill:url(#triangle36_111_);}
</style>
<g>
	<g>
		<g>
			<path class="st0" d="M19.1,29.1c0.1,0,0.2,0,0.3-0.1v-1.4c0.7-0.5,1.7-0.9,2.9-1.2c1.2-0.3,2.4-0.5,3.6-0.5
				c0.5,0.6,1,1.4,1.3,2.5c0.4,1.1,0.5,2.1,0.6,3c-0.2,0.4-0.5,0.9-1,1.3c-0.5,0.5-1.1,0.9-1.7,1.3c-1.7,1-3.6,1.5-5.8,1.5
				c-3.1,0-5.6-0.9-7.4-2.8c-1.9-1.9-2.8-4.5-2.8-7.8s1-5.9,3-7.8c0.9-0.9,1.9-1.5,3.1-1.9c1.2-0.4,2.4-0.6,3.7-0.6
				c2.6,0,4.6,0.6,6.3,1.9c1.6,1.3,2.4,2.8,2.4,4.7c0,1.4-0.4,2.4-1.3,3.1c-0.8,0.7-2,1-3.4,1c-0.8,0-1.6-0.2-2.4-0.6
				c-0.8-0.4-1.3-0.8-1.4-1.1c0-0.9,0-1.5,0-2c0,0-0.1,0-0.1,0H19c-0.2,0-0.3,0-0.4,0.1c-0.1,0.1-0.2,0.3-0.2,0.6s-0.1,1-0.1,2.3
				C18.4,27.6,18.6,29.1,19.1,29.1z"/>
			<path class="st0" d="M30.5,33.5c-1.7-1.6-2.5-3.9-2.5-6.7s0.8-5,2.3-6.6c1.6-1.6,3.6-2.4,6.2-2.4c2.5,0,4.6,0.8,6.2,2.5
				c1.6,1.7,2.3,3.9,2.3,6.6s-0.8,4.9-2.3,6.5c-1.5,1.6-3.5,2.4-6.1,2.4S32,35,30.5,33.5z M36.2,26.6v2.7c0.1,0.1,0.2,0.1,0.3,0.1
				s0.3-0.1,0.3-0.2C37,29.2,37,29,37,28.7v-2.2c0-1,0-1.7-0.1-2S36.7,24,36.4,24c-0.1,0-0.3,0.1-0.4,0.2
				C36.2,25.2,36.2,26,36.2,26.6z"/>
			<path class="st0" d="M50.3,35.5c-1.2,0-2.2-0.2-2.9-0.7c-0.8-0.5-1.2-1.2-1.2-2.1v-8c-0.6-0.9-0.9-1.9-0.9-3.2s0.3-2.4,0.9-3.3
				h2.3c1.2,0,2.1,0.4,2.6,1.2c-0.3,0.3-0.5,0.7-0.7,1.1c-0.2,0.4-0.3,0.8-0.3,1s0,0.3,0.1,0.4c0.1,0.1,0.2,0.1,0.4,0.1
				c0.4-1.4,1-2.5,2-3.2c0.8-0.6,1.8-0.9,3-0.9c1.5,0,2.7,0.3,3.5,1c0.3,0.8,0.5,1.8,0.5,3c0,1.2-0.2,2.3-0.7,3.3
				c-0.3,0.2-0.8,0.3-1.4,0.5C57.1,26,56.4,26,55.8,26s-1.2,0-1.7-0.1c-0.5-0.1-0.8-0.2-1.1-0.2C53,25.7,53,25.9,53,26
				s0.1,0.3,0.3,0.4c0.2,0.1,0.5,0.2,1,0.3v7.8C53.2,35.2,51.8,35.5,50.3,35.5z"/>
			<path class="st0" d="M65.4,35.5c-1.2,0-2.2-0.2-2.9-0.7c-0.8-0.5-1.2-1.2-1.2-2.1v-8c-0.6-0.9-0.9-1.9-0.9-3.2s0.3-2.4,0.9-3.3
				h2.3c1.2,0,2.1,0.4,2.6,1.2c-0.3,0.3-0.5,0.7-0.7,1.1c-0.2,0.4-0.3,0.8-0.3,1s0,0.3,0.1,0.4c0.1,0.1,0.2,0.1,0.4,0.1
				c0.4-1.4,1-2.5,2-3.2c0.8-0.6,1.8-0.9,3-0.9c1.5,0,2.7,0.3,3.5,1c0.3,0.8,0.5,1.8,0.5,3c0,1.2-0.2,2.3-0.7,3.3
				c-0.3,0.2-0.8,0.3-1.4,0.5C72.1,26,71.5,26,70.9,26s-1.2,0-1.7-0.1c-0.5-0.1-0.8-0.2-1.1-0.2C68,25.7,68,25.9,68,26
				s0.1,0.3,0.3,0.4c0.2,0.1,0.5,0.2,1,0.3v7.8C68.2,35.2,66.9,35.5,65.4,35.5z"/>
			<path class="st0" d="M84.2,35.8c-2.8,0-5-0.8-6.6-2.4c-1.7-1.6-2.5-3.8-2.5-6.6c0-2.8,0.9-5,2.6-6.7c1.6-1.5,3.6-2.3,6-2.3
				c2.4,0,4.4,0.7,5.8,2c1.5,1.4,2.2,3,2.2,5c0,1.8-0.6,3.1-1.8,4c-1.1,0.9-2.6,1.3-4.6,1.3c-1.4,0-2.7-0.3-3.6-0.9
				c-0.1,0.1-0.1,0.2-0.1,0.3c0,0.3,0.4,0.6,1.2,0.9c0.8,0.3,1.7,0.4,2.7,0.4s1.9-0.1,2.8-0.4c0.8-0.3,1.5-0.6,2-0.9
				c0.2,0.2,0.4,0.6,0.6,1.2c0.1,0.6,0.2,1.1,0.2,1.6c0,0.5,0,0.9-0.1,1.3c-0.8,0.7-1.6,1.2-2.4,1.5C87.3,35.6,85.9,35.8,84.2,35.8z
				 M84,25.3c0.5,0,0.8-0.2,0.8-0.6c0-0.4-0.3-0.6-0.8-0.6c-0.5,0-0.8,0.3-0.9,0.9C83.3,25.2,83.7,25.3,84,25.3z"/>
		</g>
	</g>
	<g>
		<g>
			<path class="st0" d="M49.4,52.2c0.1,0,0.2,0,0.3-0.1v-1.4c0.7-0.5,1.7-0.9,2.9-1.2s2.4-0.5,3.6-0.5c0.5,0.6,1,1.4,1.3,2.5
				c0.4,1.1,0.5,2.1,0.6,3c-0.2,0.4-0.5,0.9-1,1.3c-0.5,0.5-1.1,0.9-1.7,1.3c-1.7,1-3.6,1.5-5.8,1.5c-3.1,0-5.6-0.9-7.4-2.8
				c-1.9-1.9-2.8-4.5-2.8-7.8c0-3.3,1-5.9,3-7.8c0.9-0.9,1.9-1.5,3.1-1.9s2.4-0.6,3.7-0.6c2.6,0,4.6,0.6,6.3,1.9
				c1.6,1.3,2.4,2.8,2.4,4.7c0,1.4-0.4,2.4-1.3,3.1c-0.8,0.7-2,1-3.4,1c-0.8,0-1.6-0.2-2.4-0.6s-1.3-0.8-1.4-1.1c0-0.9,0-1.5,0-2
				c0,0-0.1,0-0.1,0h-0.1c-0.2,0-0.3,0-0.4,0.1c-0.1,0.1-0.2,0.3-0.2,0.6c-0.1,0.3-0.1,1-0.1,2.3C48.6,50.7,48.9,52.2,49.4,52.2z"/>
			<path class="st0" d="M67.4,51.6c0.1,0,0.3-0.1,0.4-0.2c-0.1-0.3-0.2-0.9-0.2-1.6v-7.7c1.1-0.7,2.4-1,3.9-1c0.9,0,1.6,0.1,2.2,0.4
				c0.6,0.2,1.1,0.5,1.5,0.9v8.1c0,1.5,0.4,2.6,1.1,3c0,0.1,0,0.2,0,0.3v0.3c0,1.5-0.4,2.7-1.2,3.4c-0.7,0.7-1.7,1.1-2.9,1.1
				c-0.8,0-1.5-0.2-2.1-0.5c-0.6-0.4-1.1-0.9-1.4-1.6c-0.3,0-0.5,0.2-0.5,0.5c0,0.2,0.1,0.5,0.3,0.7c-0.3,0.3-0.7,0.5-1.2,0.7
				s-1.1,0.2-2,0.2s-1.8-0.2-2.6-0.6c-1-0.5-1.8-1.2-2.4-2.1c-0.7-1.1-1-2.5-1-4.3v-3.9c-0.5-0.9-0.8-1.9-0.8-3
				c0-0.6,0.1-1.2,0.2-1.8s0.4-1.2,0.7-1.6h3.3c1.3,0,2.2,0.3,3,0.9c0.7,0.6,1.1,1.5,1.1,2.8v5C66.8,51.1,67,51.6,67.4,51.6z"/>
			<path class="st0" d="M78.3,48.6h0.9c0.5,0,0.8-0.2,0.8-0.5c0,0,0-0.1,0-0.2h-3.4c-0.2-0.7-0.3-1.5-0.3-2.4c0-0.9,0.1-1.6,0.2-2.2
				c0.6-0.4,1.4-0.9,2.4-1.7c0.3-0.7,0.7-1.8,1.1-3.4c0.1-0.2,0.1-0.4,0.2-0.6c0.8-0.2,1.7-0.3,2.7-0.3c1,0,2,0.1,3,0.3v3.8h2.6
				c0.6,0.9,0.9,2,0.9,3.2c0,0.6-0.1,1.1-0.2,1.7c-0.2,0.6-0.4,1.1-0.7,1.5h-2.2v2.3c0,1.3,0.5,2,1.6,2h0.7c0.2,0.8,0.3,1.5,0.3,2.1
				c0,1.4-0.4,2.5-1.3,3.3c-0.9,0.8-2.1,1.1-3.8,1.1c-1.7,0-3-0.5-4-1.4c-1-0.9-1.5-2.3-1.5-4.2V48.6z"/>
			<path class="st0" d="M97.8,44.4v6.2c0,1.5,0.4,2.6,1.1,3c0,0.1,0,0.2,0,0.3v0.3c0,1.5-0.4,2.7-1.2,3.4c-0.7,0.7-1.8,1.1-3,1.1
				c-1.3,0-2.3-0.4-3.1-1.1c-1-0.9-1.5-2.3-1.5-4V43.4c0.2-0.1,0.4-0.2,0.6-0.3s0.4-0.2,0.7-0.3c-0.4-0.2-0.8-0.6-1.2-1.2
				c-0.4-0.6-0.5-1.2-0.5-2c0-1.3,0.4-2.4,1.3-3.2c0.8-0.8,1.9-1.2,3.1-1.2c1.2,0,2.2,0.4,3.1,1.3c0.8,0.8,1.2,1.9,1.2,3.2
				c0,1-0.3,1.9-0.9,2.7c-0.6,0.8-1.4,1.3-2.3,1.5c0,0.4,0.1,0.6,0.4,0.6c0.5,0,1-0.2,1.6-0.6C97.5,44,97.7,44.3,97.8,44.4z"/>
			<path class="st0" d="M115,50.7c0,0.7,0.1,1.3,0.2,1.8c0.2,0.5,0.4,0.8,0.9,1.1c0,0.1,0,0.2,0,0.3v0.3c0,1.5-0.4,2.6-1.3,3.4
				c-0.8,0.7-1.7,1.1-2.9,1.1c-0.8,0-1.5-0.2-2.1-0.6c-0.6-0.4-1.1-0.9-1.4-1.6c-0.3,0-0.5,0.2-0.5,0.5c0,0.3,0.2,0.6,0.5,1
				c-0.7,0.5-1.7,0.7-3,0.7c-1.9,0-3.4-0.5-4.5-1.6c-1.1-1-1.7-2.5-1.7-4.4s0.6-3.3,1.8-4.3c1.1-0.9,2.5-1.4,4.2-1.4
				c0.6,0,1.2,0,1.7,0.1c0.4,0.1,0.6,0.1,0.6,0.1c0-0.1,0-0.2,0-0.3c0-0.3-0.2-0.5-0.7-0.5c-0.4-0.1-1-0.1-1.7-0.1
				c-1.5,0-2.8,0.3-3.9,0.9c-0.5-0.9-0.7-2-0.7-3.3c0-0.7,0.1-1.3,0.3-1.7c0.7-0.3,1.7-0.6,2.8-0.9s2.3-0.4,3.6-0.4
				c2.6,0,4.5,0.6,5.8,1.7s2,2.8,2,4.9V50.7z M107.1,51.4c-0.4,0-0.6,0.2-0.6,0.6c0,0.4,0.2,0.6,0.7,0.6c0.3,0,0.6-0.1,0.8-0.3
				c0.2-0.2,0.2-0.5,0.2-0.9H107.1z"/>
		</g>
	</g>
	<g>
		<defs>
			<path id="SVGID_1_" d="M100.1,27.5c0,0,0.6,5.8,4.4,9.7l0.4-4c0-0.5,0.6-0.8,1-0.5c0.6,0.4,1.3,0.7,1.9,0.7
				c1.3,0.1,2.1-0.8,2.2-2.1c0.1-1.2-0.5-2.3-1.8-2.4c-0.5,0-1.3,0.1-2,0.4c-0.5,0.2-1-0.2-0.9-0.7l0.6-6.1l6,0.6
				c0.5,0,0.9-0.5,0.7-0.9c-0.3-0.7-0.4-1.4-0.4-2c0.1-1.3,1.2-1.9,2.4-1.8s2.2,0.9,2.1,2.2c0,0.5-0.4,1.2-0.7,1.9
				c-0.3,0.4,0,1,0.5,1l6.1,0.6v0l-0.6,6.1c0,0.5,0.5,0.9,0.9,0.7c0.7-0.3,1.4-0.4,2-0.4c1.3,0.1,1.9,1.2,1.8,2.4
				c-0.1,1.2-0.9,2.2-2.2,2.1c-0.5,0-1.2-0.3-1.9-0.7c-0.4-0.3-1,0-1,0.5l-0.4,4.5c-0.5,2.4-1,4.5-1.1,6c-0.6,5.2-0.5,10.4,9.9,13.5
				h18.6c0,0,0.3-1.7-0.9-2.2c-1.3-0.5-4.3-2.4-0.5-6.1c0,0-1.7-2.9-0.8-5.5c0,0,1.9,6.3,5.4,7.1c3.6,0.8-3.2-3.7,0.2-9.6
				c0,0-0.2-0.5,3.5,1.4s2.9-5,2.5-6.8c-0.4-1.8-2.3-1.6-2.3-1.6s0.5-7.3-2.4-1c0,0-0.9-0.6-1.4-2.8c-0.4-2.2-1.6,2.5-1.6,4
				c0,0,0.4,3.7-1,4.1c-1.5,0.3-14.7,1.9-13.8,16.5c0,0-2.3-0.3-3-2c-0.7-1.7,0-3.9,2.7-6.8c0.7-0.7,1.6-2.2,2.6-4.3
				c0.1-0.3,6-14.7,3.3-25.3c-2.7-10.7-16.2-18.6-30-13S100.1,27.5,100.1,27.5z"/>
		</defs>
		<clipPath id="SVGID_2_">
			<use xlink:href="#SVGID_1_"  style="overflow:visible;"/>
		</clipPath>
		<linearGradient id="SVGID_3_" gradientUnits="userSpaceOnUse" x1="99.8489" y1="30.9431" x2="158.3341" y2="30.9431">
			<stop  offset="0" style="stop-color:#8DBF3F"/>
			<stop  offset="1" style="stop-color:#88BC40"/>
		</linearGradient>
		<path class="st1" d="M100.1,27.5c0,0,0.6,5.8,4.4,9.7l0.4-4c0-0.5,0.6-0.8,1-0.5c0.6,0.4,1.3,0.7,1.9,0.7c1.3,0.1,2.1-0.8,2.2-2.1
			c0.1-1.2-0.5-2.3-1.8-2.4c-0.5,0-1.3,0.1-2,0.4c-0.5,0.2-1-0.2-0.9-0.7l0.6-6.1l6,0.6c0.5,0,0.9-0.5,0.7-0.9
			c-0.3-0.7-0.4-1.4-0.4-2c0.1-1.3,1.2-1.9,2.4-1.8s2.2,0.9,2.1,2.2c0,0.5-0.4,1.2-0.7,1.9c-0.3,0.4,0,1,0.5,1l6.1,0.6v0l-0.6,6.1
			c0,0.5,0.5,0.9,0.9,0.7c0.7-0.3,1.4-0.4,2-0.4c1.3,0.1,1.9,1.2,1.8,2.4c-0.1,1.2-0.9,2.2-2.2,2.1c-0.5,0-1.2-0.3-1.9-0.7
			c-0.4-0.3-1,0-1,0.5l-0.4,4.5c-0.5,2.4-1,4.5-1.1,6c-0.6,5.2-0.5,10.4,9.9,13.5h18.6c0,0,0.3-1.7-0.9-2.2
			c-1.3-0.5-4.3-2.4-0.5-6.1c0,0-1.7-2.9-0.8-5.5c0,0,1.9,6.3,5.4,7.1c3.6,0.8-3.2-3.7,0.2-9.6c0,0-0.2-0.5,3.5,1.4s2.9-5,2.5-6.8
			c-0.4-1.8-2.3-1.6-2.3-1.6s0.5-7.3-2.4-1c0,0-0.9-0.6-1.4-2.8c-0.4-2.2-1.6,2.5-1.6,4c0,0,0.4,3.7-1,4.1
			c-1.5,0.3-14.7,1.9-13.8,16.5c0,0-2.3-0.3-3-2c-0.7-1.7,0-3.9,2.7-6.8c0.7-0.7,1.6-2.2,2.6-4.3c0.1-0.3,6-14.7,3.3-25.3
			c-2.7-10.7-16.2-18.6-30-13S100.1,27.5,100.1,27.5z"/>
		<g id="low_poly_1_" class="st2">
			
				<linearGradient id="triangle36_1_" gradientUnits="userSpaceOnUse" x1="-400.6095" y1="328.8859" x2="-400.5601" y2="328.8365" gradientTransform="matrix(354.8337 -175.8098 -94.1204 -189.9615 173232.0469 -7925.1797)">
				<stop  offset="0" style="stop-color:#8DBF3F"/>
				<stop  offset="1" style="stop-color:#88BC40"/>
			</linearGradient>
			<polygon id="triangle36_1338_" class="st3" points="133.7,35.7 133.4,25.2 152.4,27.1 			"/>
			
				<linearGradient id="triangle36_2_" gradientUnits="userSpaceOnUse" x1="-401.0596" y1="328.9041" x2="-401.0102" y2="328.8546" gradientTransform="matrix(340.4969 -168.7063 -94.1204 -189.9615 167651.9062 -5160.3857)">
				<stop  offset="0" style="stop-color:#83B941"/>
				<stop  offset="1" style="stop-color:#87BD40"/>
			</linearGradient>
			<polygon id="triangle36_1337_" class="st4" points="133.4,25.2 151.9,18.2 152.4,27.1 			"/>
			
				<linearGradient id="triangle36_3_" gradientUnits="userSpaceOnUse" x1="-403.5364" y1="327.7832" x2="-403.487" y2="327.7338" gradientTransform="matrix(283.1501 -140.2926 -111.8789 -225.8032 151085.7969 17413.7402)">
				<stop  offset="0" style="stop-color:#80B942"/>
				<stop  offset="1" style="stop-color:#81B941"/>
			</linearGradient>
			<polygon id="triangle36_1336_" class="st5" points="151.9,18.2 165.5,8.7 165.8,21.9 			"/>
			
				<linearGradient id="triangle36_4_" gradientUnits="userSpaceOnUse" x1="-405.3087" y1="327.234" x2="-405.2602" y2="327.1855" gradientTransform="matrix(218.6349 -108.3272 -142.0685 -286.7343 135249.0312 49955.5234)">
				<stop  offset="0" style="stop-color:#97C53D"/>
				<stop  offset="1" style="stop-color:#A3CC3A"/>
			</linearGradient>
			<polygon id="triangle36_1333_" class="st6" points="152.4,27.1 162.7,38.9 151.3,44.5 			"/>
			
				<linearGradient id="triangle36_5_" gradientUnits="userSpaceOnUse" x1="-403.8422" y1="330.6217" x2="-403.7938" y2="330.5734" gradientTransform="matrix(250.8925 -124.3099 -115.4306 -232.9716 139641.6562 26879.4805)">
				<stop  offset="0" style="stop-color:#B5D334"/>
				<stop  offset="1" style="stop-color:#B6D433"/>
			</linearGradient>
			<polygon id="triangle36_1309_" class="st7" points="156.3,56.9 169.6,51 164.9,66.4 			"/>
			
				<linearGradient id="triangle36_6_" gradientUnits="userSpaceOnUse" x1="-403.3113" y1="330.5949" x2="-403.2626" y2="330.5461" gradientTransform="matrix(240.14 -118.9824 -115.4306 -232.9716 135156.4062 29092.8594)">
				<stop  offset="0" style="stop-color:#B2D235"/>
				<stop  offset="1" style="stop-color:#B5D334"/>
			</linearGradient>
			<polygon id="triangle36_1306_" class="st8" points="143.7,62.7 156.3,56.9 154.4,71.2 			"/>
			
				<linearGradient id="triangle36_7_" gradientUnits="userSpaceOnUse" x1="-405.5308" y1="330.6144" x2="-405.4823" y2="330.5659" gradientTransform="matrix(200.714 -99.4479 -115.4306 -232.9716 119707.9609 36756.043)">
				<stop  offset="0" style="stop-color:#B5D334"/>
				<stop  offset="1" style="stop-color:#B8D433"/>
			</linearGradient>
			<polygon id="triangle36_1305_" class="st9" points="156.3,56.9 164.9,66.4 154.4,71.2 			"/>
			
				<linearGradient id="triangle36_8_" gradientUnits="userSpaceOnUse" x1="-402.8375" y1="327.9661" x2="-402.7889" y2="327.9174" gradientTransform="matrix(164.8722 -81.6894 -106.5514 -215.0507 101447.5156 37667.4336)">
				<stop  offset="0" style="stop-color:#6CAE44"/>
				<stop  offset="1" style="stop-color:#65A944"/>
			</linearGradient>
			<polygon id="triangle36_1222_" class="st10" points="93,56.1 93.8,42.9 86,48.5 			"/>
			
				<linearGradient id="triangle36_9_" gradientUnits="userSpaceOnUse" x1="-402.8414" y1="327.3391" x2="-402.7934" y2="327.2911" gradientTransform="matrix(164.8722 -81.6894 -102.9996 -207.8824 100214.6562 35179.1797)">
				<stop  offset="0" style="stop-color:#5DA545"/>
				<stop  offset="1" style="stop-color:#5BA345"/>
			</linearGradient>
			<polygon id="triangle36_1219_" class="st11" points="86,48.5 93.8,42.9 88.5,35 			"/>
			
				<linearGradient id="triangle36_10_" gradientUnits="userSpaceOnUse" x1="-427.0232" y1="328.9977" x2="-426.9735" y2="328.948" gradientTransform="matrix(46.5943 -23.0861 -69.2584 -139.783 42768.3984 36160.3867)">
				<stop  offset="0" style="stop-color:#4B984C"/>
				<stop  offset="1" style="stop-color:#529E47"/>
			</linearGradient>
			<polygon id="triangle36_1218_" class="st12" points="85.5,28.8 91.2,34.3 88.5,35 			"/>
			
				<linearGradient id="triangle36_11_" gradientUnits="userSpaceOnUse" x1="-427.007" y1="328.1837" x2="-426.9581" y2="328.1348" gradientTransform="matrix(46.5943 -23.0861 -88.7928 -179.2089 49124.6914 48989.1758)">
				<stop  offset="0" style="stop-color:#5FA544"/>
				<stop  offset="1" style="stop-color:#55A046"/>
			</linearGradient>
			<polygon id="triangle36_1217_" class="st13" points="93.8,42.9 91.2,34.3 88.5,35 			"/>
			
				<linearGradient id="triangle36_12_" gradientUnits="userSpaceOnUse" x1="-407.7465" y1="329.0113" x2="-407.6967" y2="328.9614" gradientTransform="matrix(100.357 -49.724 -92.3445 -186.3773 71385.9688 41094.1719)">
				<stop  offset="0" style="stop-color:#62A844"/>
				<stop  offset="1" style="stop-color:#67AB44"/>
			</linearGradient>
			<polygon id="triangle36_1204_" class="st14" points="86,48.5 93,56.1 84.1,51.3 			"/>
			
				<linearGradient id="triangle36_13_" gradientUnits="userSpaceOnUse" x1="-402.5558" y1="331.2778" x2="-402.5063" y2="331.2282" gradientTransform="matrix(236.5558 -117.2065 -85.2411 -172.0406 123586.1953 9862.5938)">
				<stop  offset="0" style="stop-color:#9FCA3B"/>
				<stop  offset="1" style="stop-color:#9DC83B"/>
			</linearGradient>
			<polygon id="triangle36_1169_" class="st15" points="125.9,56.3 138.5,50.9 123.5,48.1 			"/>
			
				<linearGradient id="triangle36_14_" gradientUnits="userSpaceOnUse" x1="-402.5435" y1="343.0807" x2="-402.495" y2="343.0322" gradientTransform="matrix(236.5558 -117.2065 -40.8447 -82.4361 109363.5156 -18842.791)">
				<stop  offset="0" style="stop-color:#A2CB3A"/>
				<stop  offset="1" style="stop-color:#A5CD39"/>
			</linearGradient>
			<polygon id="triangle36_1168_" class="st16" points="125.9,56.3 138.5,50.9 131.6,58.4 			"/>
			
				<linearGradient id="triangle36_15_" gradientUnits="userSpaceOnUse" x1="-406.461" y1="329.2725" x2="-406.411" y2="329.2225" gradientTransform="matrix(164.8722 -81.6894 -120.7582 -243.7241 106906.7656 47100.0273)">
				<stop  offset="0" style="stop-color:#ADD136"/>
				<stop  offset="1" style="stop-color:#A6CE38"/>
			</linearGradient>
			<polygon id="triangle36_1167_" class="st17" points="143.7,62.7 138.5,50.9 131.6,58.4 			"/>
			
				<linearGradient id="triangle36_16_" gradientUnits="userSpaceOnUse" x1="-406.4141" y1="332.3969" x2="-406.3645" y2="332.3473" gradientTransform="matrix(164.8722 -81.6894 -87.0169 -175.6247 96061.1328 25237.5039)">
				<stop  offset="0" style="stop-color:#AAD037"/>
				<stop  offset="1" style="stop-color:#AED136"/>
			</linearGradient>
			<polygon id="triangle36_1165_" class="st18" points="131.6,58.4 143.7,62.7 133.4,63.4 			"/>
			
				<linearGradient id="triangle36_17_" gradientUnits="userSpaceOnUse" x1="-402.2952" y1="333.0575" x2="-402.2447" y2="333.007" gradientTransform="matrix(247.3083 -122.5341 -65.7067 -132.6146 121494.7656 -5083.7764)">
				<stop  offset="0" style="stop-color:#93C33E"/>
				<stop  offset="1" style="stop-color:#8FC13F"/>
			</linearGradient>
			<polygon id="triangle36_1164_" class="st19" points="123.5,48.1 121.9,41.1 134.5,38 			"/>
			
				<linearGradient id="triangle36_18_" gradientUnits="userSpaceOnUse" x1="-402.2827" y1="328.1154" x2="-402.2328" y2="328.0655" gradientTransform="matrix(247.3083 -122.5341 -124.3099 -250.8925 140398.4844 33069.2656)">
				<stop  offset="0" style="stop-color:#97C63D"/>
				<stop  offset="1" style="stop-color:#9BC83C"/>
			</linearGradient>
			<polygon id="triangle36_1163_" class="st20" points="123.5,48.1 138.5,50.9 134.5,38 			"/>
			
				<linearGradient id="triangle36_19_" gradientUnits="userSpaceOnUse" x1="-403.1454" y1="349.1248" x2="-403.0958" y2="349.0752" gradientTransform="matrix(225.8032 -111.8789 -26.6378 -53.7627 100455.6172 -26294.3711)">
				<stop  offset="0" style="stop-color:#8DBF3F"/>
				<stop  offset="1" style="stop-color:#91C13E"/>
			</linearGradient>
			<polygon id="triangle36_1162_" class="st21" points="121.9,41.1 133.7,35.7 134.5,38 			"/>
			
				<linearGradient id="triangle36_20_" gradientUnits="userSpaceOnUse" x1="-406.8844" y1="328.0999" x2="-406.8344" y2="328.0499" gradientTransform="matrix(172.0406 -85.2411 -124.3099 -250.8925 110919.0938 47675.4492)">
				<stop  offset="0" style="stop-color:#A1CA3A"/>
				<stop  offset="1" style="stop-color:#9AC73C"/>
			</linearGradient>
			<polygon id="triangle36_1161_" class="st22" points="138.5,50.9 134.5,38 144.9,41.4 			"/>
			
				<linearGradient id="triangle36_21_" gradientUnits="userSpaceOnUse" x1="-410.3957" y1="329.7913" x2="-410.3461" y2="329.7417" gradientTransform="matrix(136.1988 -67.4825 -94.1204 -189.9615 87068.7812 34989.4102)">
				<stop  offset="0" style="stop-color:#95C43D"/>
				<stop  offset="1" style="stop-color:#96C53D"/>
			</linearGradient>
			<polygon id="triangle36_1160_" class="st23" points="134.5,38 133.7,35.7 144.9,41.4 			"/>
			
				<linearGradient id="triangle36_22_" gradientUnits="userSpaceOnUse" x1="-400.5962" y1="329.7983" x2="-400.5475" y2="329.7497" gradientTransform="matrix(354.8337 -175.8098 -94.1204 -189.9615 173320.8438 -7745.9707)">
				<stop  offset="0" style="stop-color:#93C23E"/>
				<stop  offset="1" style="stop-color:#96C53D"/>
			</linearGradient>
			<polygon id="triangle36_1159_" class="st24" points="133.7,35.7 152.4,27.1 144.9,41.4 			"/>
			
				<linearGradient id="triangle36_23_" gradientUnits="userSpaceOnUse" x1="-404.642" y1="327.2441" x2="-404.5925" y2="327.1946" gradientTransform="matrix(225.8032 -111.8789 -142.0685 -286.7343 138001.4688 48591.7734)">
				<stop  offset="0" style="stop-color:#A2CB3A"/>
				<stop  offset="1" style="stop-color:#99C63C"/>
			</linearGradient>
			<polygon id="triangle36_1158_" class="st25" points="151.3,44.5 152.4,27.1 144.9,41.4 			"/>
			
				<linearGradient id="triangle36_24_" gradientUnits="userSpaceOnUse" x1="-405.4505" y1="329.2593" x2="-405.3999" y2="329.2087" gradientTransform="matrix(193.5456 -95.8962 -120.7582 -243.7241 118371.6875 41419.4883)">
				<stop  offset="0" style="stop-color:#AED136"/>
				<stop  offset="1" style="stop-color:#A9CF38"/>
			</linearGradient>
			<polygon id="triangle36_1157_" class="st26" points="143.7,62.7 138.5,50.9 150,50.3 			"/>
			
				<linearGradient id="triangle36_25_" gradientUnits="userSpaceOnUse" x1="-403.3169" y1="333.1746" x2="-403.2687" y2="333.1264" gradientTransform="matrix(240.14 -118.9824 -81.6894 -164.8722 124209.6484 6999.207)">
				<stop  offset="0" style="stop-color:#B0D235"/>
				<stop  offset="1" style="stop-color:#AFD136"/>
			</linearGradient>
			<polygon id="triangle36_1156_" class="st27" points="143.7,62.7 156.3,56.9 150,50.3 			"/>
			
				<linearGradient id="triangle36_26_" gradientUnits="userSpaceOnUse" x1="-406.1442" y1="330.5923" x2="-406.0937" y2="330.5419" gradientTransform="matrix(182.7931 -90.5687 -95.8962 -193.5456 106079.1562 27244.8711)">
				<stop  offset="0" style="stop-color:#A5CD39"/>
				<stop  offset="1" style="stop-color:#A5CD39"/>
			</linearGradient>
			<polygon id="triangle36_1155_" class="st28" points="138.5,50.9 144.9,41.4 150,50.3 			"/>
			
				<linearGradient id="triangle36_27_" gradientUnits="userSpaceOnUse" x1="-425.0042" y1="330.5822" x2="-424.9539" y2="330.532" gradientTransform="matrix(75.2677 -37.293 -95.8962 -193.5456 63835.6758 48175.2852)">
				<stop  offset="0" style="stop-color:#A2CC3A"/>
				<stop  offset="1" style="stop-color:#A8CF38"/>
			</linearGradient>
			<polygon id="triangle36_1154_" class="st29" points="144.9,41.4 151.3,44.5 150,50.3 			"/>
			
				<linearGradient id="triangle36_28_" gradientUnits="userSpaceOnUse" x1="-434.713" y1="333.1832" x2="-434.6635" y2="333.1338" gradientTransform="matrix(57.3469 -28.4137 -81.6894 -164.8722 52296.8086 42629.9219)">
				<stop  offset="0" style="stop-color:#ACD037"/>
				<stop  offset="1" style="stop-color:#B0D235"/>
			</linearGradient>
			<polygon id="triangle36_1153_" class="st30" points="150,50.3 156.3,56.9 154.8,52.4 			"/>
			
				<linearGradient id="triangle36_29_" gradientUnits="userSpaceOnUse" x1="-430.2412" y1="332.9221" x2="-430.1908" y2="332.8718" gradientTransform="matrix(64.5152 -31.9654 -79.9135 -161.288 54509.8555 39988.3359)">
				<stop  offset="0" style="stop-color:#AAD037"/>
				<stop  offset="1" style="stop-color:#AAD037"/>
			</linearGradient>
			<polygon id="triangle36_1152_" class="st31" points="150,50.3 151.3,44.5 154.8,52.4 			"/>
			
				<linearGradient id="triangle36_30_" gradientUnits="userSpaceOnUse" x1="-403.8553" y1="340.992" x2="-403.8057" y2="340.9424" gradientTransform="matrix(250.8925 -124.3099 -49.724 -100.357 118432.0391 -15927.498)">
				<stop  offset="0" style="stop-color:#B2D235"/>
				<stop  offset="1" style="stop-color:#B0D235"/>
			</linearGradient>
			<polygon id="triangle36_1151_" class="st32" points="156.3,56.9 169.6,51 154.8,52.4 			"/>
			
				<linearGradient id="triangle36_31_" gradientUnits="userSpaceOnUse" x1="-404.9317" y1="332.9159" x2="-404.8799" y2="332.864" gradientTransform="matrix(225.8032 -111.8789 -79.9135 -161.288 118190.4844 8436.4404)">
				<stop  offset="0" style="stop-color:#A6CE38"/>
				<stop  offset="1" style="stop-color:#A9CF38"/>
			</linearGradient>
			<polygon id="triangle36_1150_" class="st33" points="151.3,44.5 162.7,38.9 154.8,52.4 			"/>
			
				<linearGradient id="triangle36_32_" gradientUnits="userSpaceOnUse" x1="-404.3042" y1="328.7789" x2="-404.2536" y2="328.7282" gradientTransform="matrix(240.14 -118.9824 -129.6375 -261.645 139862.7969 37961.0156)">
				<stop  offset="0" style="stop-color:#A9CF38"/>
				<stop  offset="1" style="stop-color:#AFD136"/>
			</linearGradient>
			<polygon id="triangle36_1149_" class="st34" points="162.7,38.9 169.6,51 154.8,52.4 			"/>
			
				<linearGradient id="triangle36_33_" gradientUnits="userSpaceOnUse" x1="-412.4424" y1="327.5371" x2="-412.3934" y2="327.488" gradientTransform="matrix(139.783 -69.2584 -120.7582 -243.7241 97354.0938 51284.0156)">
				<stop  offset="0" style="stop-color:#8EC03F"/>
				<stop  offset="1" style="stop-color:#8BBE3F"/>
			</linearGradient>
			<polygon id="triangle36_1148_" class="st35" points="152.4,27.1 151.9,18.2 161.7,27.7 			"/>
			
				<linearGradient id="triangle36_34_" gradientUnits="userSpaceOnUse" x1="-412.4375" y1="327.2418" x2="-412.3886" y2="327.1929" gradientTransform="matrix(139.783 -69.2584 -142.0685 -286.7343 104294.8516 65292.418)">
				<stop  offset="0" style="stop-color:#95C43D"/>
				<stop  offset="1" style="stop-color:#9CC83B"/>
			</linearGradient>
			<polygon id="triangle36_1147_" class="st36" points="152.4,27.1 162.7,38.9 161.7,27.7 			"/>
			
				<linearGradient id="triangle36_35_" gradientUnits="userSpaceOnUse" x1="-408.2605" y1="327.5374" x2="-408.2105" y2="327.4874" gradientTransform="matrix(186.3773 -92.3445 -120.7582 -243.7241 115795.0859 42147.043)">
				<stop  offset="0" style="stop-color:#85BC40"/>
				<stop  offset="1" style="stop-color:#8FC13F"/>
			</linearGradient>
			<polygon id="triangle36_1146_" class="st37" points="151.9,18.2 165.8,21.9 161.7,27.7 			"/>
			
				<linearGradient id="triangle36_36_" gradientUnits="userSpaceOnUse" x1="-419.2614" y1="329.9952" x2="-419.2121" y2="329.9458" gradientTransform="matrix(103.9412 -51.4998 -97.6721 -197.1298 75968.0234 43490.4102)">
				<stop  offset="0" style="stop-color:#A0CA3A"/>
				<stop  offset="1" style="stop-color:#99C63C"/>
			</linearGradient>
			<polygon id="triangle36_1145_" class="st38" points="162.7,38.9 161.7,27.7 165.3,30.8 			"/>
			
				<linearGradient id="triangle36_37_" gradientUnits="userSpaceOnUse" x1="-419.0605" y1="332.2776" x2="-419.0115" y2="332.2286" gradientTransform="matrix(107.5254 -53.2757 -72.8101 -146.9513 69413.1328 26526.5254)">
				<stop  offset="0" style="stop-color:#95C43D"/>
				<stop  offset="1" style="stop-color:#94C43E"/>
			</linearGradient>
			<polygon id="triangle36_1144_" class="st39" points="161.7,27.7 165.8,21.9 165.3,30.8 			"/>
			
				<linearGradient id="triangle36_38_" gradientUnits="userSpaceOnUse" x1="-401.2189" y1="323.9561" x2="-401.17" y2="323.9072" gradientTransform="matrix(286.7343 -142.0685 -134.9651 -272.3976 158862.7188 31240.502)">
				<stop  offset="0" style="stop-color:#3C8B54"/>
				<stop  offset="1" style="stop-color:#358356"/>
			</linearGradient>
			<polygon id="triangle36_1136_" class="st40" points="103.3,7.5 106.2,-10.1 116.9,-2.6 			"/>
			
				<linearGradient id="triangle36_39_" gradientUnits="userSpaceOnUse" x1="-402.9763" y1="328.2765" x2="-402.9256" y2="328.2259" gradientTransform="matrix(215.0507 -106.5514 -76.3618 -154.1197 111830.1484 7676.2388)">
				<stop  offset="0" style="stop-color:#549E45"/>
				<stop  offset="1" style="stop-color:#5CA244"/>
			</linearGradient>
			<polygon id="triangle36_1133_" class="st41" points="102.2,19.7 107.5,26.2 114.7,16.9 			"/>
			
				<linearGradient id="triangle36_40_" gradientUnits="userSpaceOnUse" x1="-402.9766" y1="325.107" x2="-402.9277" y2="325.0581" gradientTransform="matrix(215.0507 -106.5514 -126.0858 -254.4767 127749.3984 39805.7695)">
				<stop  offset="0" style="stop-color:#4F9A47"/>
				<stop  offset="1" style="stop-color:#4E9848"/>
			</linearGradient>
			<polygon id="triangle36_1132_" class="st42" points="102.2,19.7 103.3,7.5 114.7,16.9 			"/>
			
				<linearGradient id="triangle36_41_" gradientUnits="userSpaceOnUse" x1="-403.938" y1="325.1104" x2="-403.8878" y2="325.0603" gradientTransform="matrix(204.2982 -101.2238 -126.0858 -254.4767 123618.9531 41852.2852)">
				<stop  offset="0" style="stop-color:#47944D"/>
				<stop  offset="1" style="stop-color:#559C45"/>
			</linearGradient>
			<polygon id="triangle36_1131_" class="st43" points="103.3,7.5 117.7,9.9 114.7,16.9 			"/>
			
				<linearGradient id="triangle36_42_" gradientUnits="userSpaceOnUse" x1="-400.4225" y1="323.9674" x2="-400.3735" y2="323.9184" gradientTransform="matrix(304.6552 -150.9478 -134.9651 -272.3976 165806.5312 27800.0488)">
				<stop  offset="0" style="stop-color:#398955"/>
				<stop  offset="1" style="stop-color:#2E7E5A"/>
			</linearGradient>
			<polygon id="triangle36_1129_" class="st44" points="103.3,7.5 106.2,-10.1 92,0.8 			"/>
			
				<linearGradient id="triangle36_43_" gradientUnits="userSpaceOnUse" x1="-402.3182" y1="325.9843" x2="-402.2679" y2="325.9339" gradientTransform="matrix(207.8824 -102.9996 -97.6721 -197.1298 115561.2891 22837.4355)">
				<stop  offset="0" style="stop-color:#429150"/>
				<stop  offset="1" style="stop-color:#44924E"/>
			</linearGradient>
			<polygon id="triangle36_1125_" class="st45" points="89.1,20.2 102.2,19.7 93.7,12.2 			"/>
			
				<linearGradient id="triangle36_44_" gradientUnits="userSpaceOnUse" x1="-403.9076" y1="324.8206" x2="-403.8584" y2="324.7714" gradientTransform="matrix(186.3773 -92.3445 -102.9996 -207.8824 108823.8984 30230.5488)">
				<stop  offset="0" style="stop-color:#318259"/>
				<stop  offset="1" style="stop-color:#3C8C54"/>
			</linearGradient>
			<polygon id="triangle36_1123_" class="st46" points="92,0.8 103.3,7.5 93.7,12.2 			"/>
			
				<linearGradient id="triangle36_45_" gradientUnits="userSpaceOnUse" x1="-403.8941" y1="325.9874" x2="-403.8453" y2="325.9387" gradientTransform="matrix(186.3773 -92.3445 -97.6721 -197.1298 107210.7969 26974.8594)">
				<stop  offset="0" style="stop-color:#4B964C"/>
				<stop  offset="1" style="stop-color:#3F8E52"/>
			</linearGradient>
			<polygon id="triangle36_1122_" class="st47" points="102.2,19.7 103.3,7.5 93.7,12.2 			"/>
			
				<linearGradient id="triangle36_46_" gradientUnits="userSpaceOnUse" x1="-404.6777" y1="327.7886" x2="-404.6285" y2="327.7394" gradientTransform="matrix(139.783 -69.2584 -127.8616 -258.0609 98571.6875 56615.5586)">
				<stop  offset="0" style="stop-color:#7BB742"/>
				<stop  offset="1" style="stop-color:#84BC41"/>
			</linearGradient>
			<polygon id="triangle36_1121_" class="st48" points="93,56.1 103.7,66 101,54 			"/>
			
				<linearGradient id="triangle36_47_" gradientUnits="userSpaceOnUse" x1="-404.6848" y1="327.1985" x2="-404.6357" y2="327.1493" gradientTransform="matrix(139.783 -69.2584 -122.5341 -247.3083 96749.0312 52936.9375)">
				<stop  offset="0" style="stop-color:#71B143"/>
				<stop  offset="1" style="stop-color:#70B143"/>
			</linearGradient>
			<polygon id="triangle36_1120_" class="st49" points="93,56.1 93.8,42.9 101,54 			"/>
			
				<linearGradient id="triangle36_48_" gradientUnits="userSpaceOnUse" x1="-407.8701" y1="327.1971" x2="-407.8196" y2="327.1466" gradientTransform="matrix(114.6937 -56.8274 -122.5341 -247.3083 86966.7734 57783.7617)">
				<stop  offset="0" style="stop-color:#6BAD44"/>
				<stop  offset="1" style="stop-color:#75B343"/>
			</linearGradient>
			<polygon id="triangle36_1119_" class="st50" points="93.8,42.9 102.5,45.4 101,54 			"/>
			
				<linearGradient id="triangle36_49_" gradientUnits="userSpaceOnUse" x1="-405.6364" y1="332.4132" x2="-405.5875" y2="332.3643" gradientTransform="matrix(139.783 -69.2584 -65.7067 -132.6146 78640.5938 16037.6182)">
				<stop  offset="0" style="stop-color:#79B643"/>
				<stop  offset="1" style="stop-color:#7FB942"/>
			</linearGradient>
			<polygon id="triangle36_1118_" class="st51" points="102.5,45.4 107.4,48.9 101,54 			"/>
			
				<linearGradient id="triangle36_50_" gradientUnits="userSpaceOnUse" x1="-403.4541" y1="328.7224" x2="-403.4038" y2="328.6721" gradientTransform="matrix(168.4564 -83.4652 -111.8789 -225.8032 104839.7812 40608.5352)">
				<stop  offset="0" style="stop-color:#8CC03F"/>
				<stop  offset="1" style="stop-color:#85BD41"/>
			</linearGradient>
			<polygon id="triangle36_1117_" class="st52" points="103.7,66 101,54 109,54.9 			"/>
			
				<linearGradient id="triangle36_51_" gradientUnits="userSpaceOnUse" x1="-401.5049" y1="332.5496" x2="-401.4567" y2="332.5013" gradientTransform="matrix(215.0507 -106.5514 -74.586 -150.5355 111247.9922 7339.1904)">
				<stop  offset="0" style="stop-color:#90C23E"/>
				<stop  offset="1" style="stop-color:#92C33E"/>
			</linearGradient>
			<polygon id="triangle36_1116_" class="st53" points="103.7,66 115,60.8 109,54.9 			"/>
			
				<linearGradient id="triangle36_52_" gradientUnits="userSpaceOnUse" x1="-405.6245" y1="334.8707" x2="-405.5746" y2="334.8208" gradientTransform="matrix(139.783 -69.2584 -56.8274 -114.6937 75830.1562 10365.3564)">
				<stop  offset="0" style="stop-color:#81BA41"/>
				<stop  offset="1" style="stop-color:#85BD41"/>
			</linearGradient>
			<polygon id="triangle36_1115_" class="st54" points="101,54 107.4,48.9 109,54.9 			"/>
			
				<linearGradient id="triangle36_53_" gradientUnits="userSpaceOnUse" x1="-410.035" y1="334.8512" x2="-409.9854" y2="334.8016" gradientTransform="matrix(107.5254 -53.2757 -56.8274 -114.6937 63223.7773 16611.4492)">
				<stop  offset="0" style="stop-color:#8ABE40"/>
				<stop  offset="1" style="stop-color:#88BE40"/>
			</linearGradient>
			<polygon id="triangle36_1114_" class="st55" points="109,54.9 107.4,48.9 114.3,51.4 			"/>
			
				<linearGradient id="triangle36_54_" gradientUnits="userSpaceOnUse" x1="-410.0193" y1="331.5686" x2="-409.9704" y2="331.5197" gradientTransform="matrix(107.5254 -53.2757 -81.6894 -164.8722 71281.9609 32875.1367)">
				<stop  offset="0" style="stop-color:#8EC03F"/>
				<stop  offset="1" style="stop-color:#93C33E"/>
			</linearGradient>
			<polygon id="triangle36_1113_" class="st56" points="109,54.9 115,60.8 114.3,51.4 			"/>
			
				<linearGradient id="triangle36_55_" gradientUnits="userSpaceOnUse" x1="-402.8802" y1="330.7988" x2="-402.8309" y2="330.7495" gradientTransform="matrix(204.2982 -101.2238 -88.7928 -179.2089 111790.6484 18556.0566)">
				<stop  offset="0" style="stop-color:#98C53C"/>
				<stop  offset="1" style="stop-color:#96C53D"/>
			</linearGradient>
			<polygon id="triangle36_1112_" class="st57" points="115,60.8 125.9,56.3 114.3,51.4 			"/>
			
				<linearGradient id="triangle36_56_" gradientUnits="userSpaceOnUse" x1="-404.9938" y1="330.817" x2="-404.9443" y2="330.7675" gradientTransform="matrix(168.4564 -83.4652 -88.7928 -179.2089 97713.0781 25531.0859)">
				<stop  offset="0" style="stop-color:#9BC83C"/>
				<stop  offset="1" style="stop-color:#93C43E"/>
			</linearGradient>
			<polygon id="triangle36_1111_" class="st58" points="125.9,56.3 123.5,48.1 114.3,51.4 			"/>
			
				<linearGradient id="triangle36_57_" gradientUnits="userSpaceOnUse" x1="-403.4707" y1="333.0659" x2="-403.4196" y2="333.0147" gradientTransform="matrix(197.1298 -97.6721 -65.7067 -132.6146 101532.4062 4806.9941)">
				<stop  offset="0" style="stop-color:#92C33E"/>
				<stop  offset="1" style="stop-color:#8DC03F"/>
			</linearGradient>
			<polygon id="triangle36_1110_" class="st59" points="123.5,48.1 121.9,41.1 114.3,51.4 			"/>
			
				<linearGradient id="triangle36_58_" gradientUnits="userSpaceOnUse" x1="-402.8144" y1="335.7315" x2="-402.7661" y2="335.6831" gradientTransform="matrix(197.1298 -97.6721 -49.724 -100.357 96203.5156 -5605.8398)">
				<stop  offset="0" style="stop-color:#7AB542"/>
				<stop  offset="1" style="stop-color:#80B942"/>
			</linearGradient>
			<polygon id="triangle36_1109_" class="st60" points="102.5,45.4 107.4,48.9 113,41 			"/>
			
				<linearGradient id="triangle36_59_" gradientUnits="userSpaceOnUse" x1="-401.3212" y1="333.198" x2="-401.2699" y2="333.1468" gradientTransform="matrix(240.14 -118.9824 -56.8274 -114.6937 115408.125 -9494.3643)">
				<stop  offset="0" style="stop-color:#77B543"/>
				<stop  offset="1" style="stop-color:#7AB542"/>
			</linearGradient>
			<polygon id="triangle36_1108_" class="st61" points="102.5,45.4 112.6,34.5 113,41 			"/>
			
				<linearGradient id="triangle36_60_" gradientUnits="userSpaceOnUse" x1="-405.9842" y1="329.5275" x2="-405.9344" y2="329.4778" gradientTransform="matrix(146.9513 -72.8101 -92.3445 -186.3773 90195.6719 31899.5059)">
				<stop  offset="0" style="stop-color:#83BC41"/>
				<stop  offset="1" style="stop-color:#86BC40"/>
			</linearGradient>
			<polygon id="triangle36_1107_" class="st62" points="107.4,48.9 114.3,51.4 113,41 			"/>
			
				<linearGradient id="triangle36_61_" gradientUnits="userSpaceOnUse" x1="-403.4756" y1="329.5156" x2="-403.4254" y2="329.4653" gradientTransform="matrix(197.1298 -97.6721 -92.3445 -186.3773 110075.6016 22049.5801)">
				<stop  offset="0" style="stop-color:#8BBF3F"/>
				<stop  offset="1" style="stop-color:#85BC40"/>
			</linearGradient>
			<polygon id="triangle36_1106_" class="st63" points="114.3,51.4 121.9,41.1 113,41 			"/>
			
				<linearGradient id="triangle36_62_" gradientUnits="userSpaceOnUse" x1="-407.9264" y1="328.8013" x2="-407.8771" y2="328.752" gradientTransform="matrix(136.1988 -67.4825 -94.1204 -189.9615 86616.2812 34968.0898)">
				<stop  offset="0" style="stop-color:#7AB542"/>
				<stop  offset="1" style="stop-color:#84BB41"/>
			</linearGradient>
			<polygon id="triangle36_1105_" class="st64" points="112.6,34.5 121.9,41.1 113,41 			"/>
			
				<linearGradient id="triangle36_63_" gradientUnits="userSpaceOnUse" x1="-400.4048" y1="331.6549" x2="-400.3551" y2="331.6053" gradientTransform="matrix(254.4767 -126.0858 -88.7928 -179.2089 131447.6406 9013.0059)">
				<stop  offset="0" style="stop-color:#95C43D"/>
				<stop  offset="1" style="stop-color:#9DC83B"/>
			</linearGradient>
			<polygon id="triangle36_1067_" class="st65" points="103.7,66 115,60.8 121.1,68 			"/>
			
				<linearGradient id="triangle36_64_" gradientUnits="userSpaceOnUse" x1="-402.8709" y1="332.0837" x2="-402.8228" y2="332.0356" gradientTransform="matrix(204.2982 -101.2238 -85.2411 -172.0406 110728.2734 16411.8809)">
				<stop  offset="0" style="stop-color:#9CC83B"/>
				<stop  offset="1" style="stop-color:#A1CA3A"/>
			</linearGradient>
			<polygon id="triangle36_1066_" class="st66" points="115,60.8 125.9,56.3 121.1,68 			"/>
			
				<linearGradient id="triangle36_65_" gradientUnits="userSpaceOnUse" x1="-401.8875" y1="333.0698" x2="-401.8384" y2="333.0207" gradientTransform="matrix(236.5558 -117.2065 -78.1377 -157.7039 121211.3281 5483.8931)">
				<stop  offset="0" style="stop-color:#A2CB3A"/>
				<stop  offset="1" style="stop-color:#A6CD39"/>
			</linearGradient>
			<polygon id="triangle36_1065_" class="st67" points="125.9,56.3 131.6,58.4 121.1,68 			"/>
			
				<linearGradient id="triangle36_66_" gradientUnits="userSpaceOnUse" x1="-401.8829" y1="340.1225" x2="-401.8319" y2="340.0715" gradientTransform="matrix(236.5558 -117.2065 -49.724 -100.357 112099.6484 -12906.0488)">
				<stop  offset="0" style="stop-color:#AAD037"/>
				<stop  offset="1" style="stop-color:#A6CE38"/>
			</linearGradient>
			<polygon id="triangle36_1063_" class="st68" points="133.4,63.4 131.6,58.4 121.1,68 			"/>
			
				<linearGradient id="triangle36_67_" gradientUnits="userSpaceOnUse" x1="-406.8607" y1="330.5507" x2="-406.8108" y2="330.5008" gradientTransform="matrix(215.0507 -106.5514 -58.6033 -118.2779 107016.3906 -4255.6792)">
				<stop  offset="0" style="stop-color:#599F44"/>
				<stop  offset="1" style="stop-color:#5BA044"/>
			</linearGradient>
			<polygon id="triangle36_1006_" class="st69" points="149.1,-0.6 160.7,-5.3 153.9,4 			"/>
			
				<linearGradient id="triangle36_68_" gradientUnits="userSpaceOnUse" x1="-404.6507" y1="328.4452" x2="-404.6017" y2="328.3962" gradientTransform="matrix(265.2292 -131.4133 -87.0169 -175.6247 136060.8594 4508.1362)">
				<stop  offset="0" style="stop-color:#6DAC44"/>
				<stop  offset="1" style="stop-color:#63A544"/>
			</linearGradient>
			<polygon id="triangle36_1005_" class="st70" points="165.5,8.7 167.7,-2.8 153.9,4 			"/>
			
				<linearGradient id="triangle36_69_" gradientUnits="userSpaceOnUse" x1="-404.661" y1="332.2206" x2="-404.6124" y2="332.172" gradientTransform="matrix(265.2292 -131.4133 -49.724 -100.357 123998.4375 -19837.2168)">
				<stop  offset="0" style="stop-color:#599D44"/>
				<stop  offset="1" style="stop-color:#5FA244"/>
			</linearGradient>
			<polygon id="triangle36_1004_" class="st71" points="160.7,-5.3 167.7,-2.8 153.9,4 			"/>
			
				<linearGradient id="triangle36_70_" gradientUnits="userSpaceOnUse" x1="-403.0453" y1="327.2143" x2="-402.996" y2="327.1649" gradientTransform="matrix(279.5659 -138.5168 -94.1204 -189.9615 143610.8125 6331.6592)">
				<stop  offset="0" style="stop-color:#5BA044"/>
				<stop  offset="1" style="stop-color:#5FA344"/>
			</linearGradient>
			<polygon id="triangle36_1003_" class="st72" points="133.9,5.1 149.1,-0.6 149.5,8.6 			"/>
			
				<linearGradient id="triangle36_71_" gradientUnits="userSpaceOnUse" x1="-403.5535" y1="328.3868" x2="-403.5036" y2="328.3369" gradientTransform="matrix(283.1501 -140.2926 -90.5687 -182.7931 144153.9219 3423.2588)">
				<stop  offset="0" style="stop-color:#7AB442"/>
				<stop  offset="1" style="stop-color:#70AE43"/>
			</linearGradient>
			<polygon id="triangle36_1002_" class="st73" points="151.9,18.2 165.5,8.7 149.5,8.6 			"/>
			
				<linearGradient id="triangle36_72_" gradientUnits="userSpaceOnUse" x1="-419.5239" y1="328.4362" x2="-419.4749" y2="328.3873" gradientTransform="matrix(103.9412 -51.4998 -78.1377 -157.7039 69414.8672 30192.2227)">
				<stop  offset="0" style="stop-color:#5CA044"/>
				<stop  offset="1" style="stop-color:#65A644"/>
			</linearGradient>
			<polygon id="triangle36_1001_" class="st74" points="149.1,-0.6 153.9,4 149.5,8.6 			"/>
			
				<linearGradient id="triangle36_73_" gradientUnits="userSpaceOnUse" x1="-404.9961" y1="328.4402" x2="-404.9462" y2="328.3902" gradientTransform="matrix(247.3083 -122.5341 -87.0169 -175.6247 128887.6562 8062.2451)">
				<stop  offset="0" style="stop-color:#67A844"/>
				<stop  offset="1" style="stop-color:#6EAC43"/>
			</linearGradient>
			<polygon id="triangle36_1000_" class="st75" points="153.9,4 165.5,8.7 149.5,8.6 			"/>
			
				<linearGradient id="triangle36_74_" gradientUnits="userSpaceOnUse" x1="-402.946" y1="327.3527" x2="-402.8962" y2="327.3029" gradientTransform="matrix(265.2292 -131.4133 -102.9996 -207.8824 140718.2188 15115.3086)">
				<stop  offset="0" style="stop-color:#78B242"/>
				<stop  offset="1" style="stop-color:#6EAC43"/>
			</linearGradient>
			<polygon id="triangle36_999_" class="st76" points="133.4,25.2 134.7,12.3 144.6,13.3 			"/>
			
				<linearGradient id="triangle36_75_" gradientUnits="userSpaceOnUse" x1="-401.0692" y1="330.3856" x2="-401.0182" y2="330.3346" gradientTransform="matrix(340.4969 -168.7063 -71.0342 -143.3671 160162.2031 -20276.7168)">
				<stop  offset="0" style="stop-color:#7CB542"/>
				<stop  offset="1" style="stop-color:#77B342"/>
			</linearGradient>
			<polygon id="triangle36_998_" class="st77" points="133.4,25.2 151.9,18.2 144.6,13.3 			"/>
			
				<linearGradient id="triangle36_76_" gradientUnits="userSpaceOnUse" x1="-410.5264" y1="326.3274" x2="-410.4771" y2="326.2781" gradientTransform="matrix(146.9513 -72.8101 -113.6548 -229.3874 97547.6875 44972.0352)">
				<stop  offset="0" style="stop-color:#66A744"/>
				<stop  offset="1" style="stop-color:#65A644"/>
			</linearGradient>
			<polygon id="triangle36_997_" class="st78" points="134.7,12.3 133.9,5.1 144.6,13.3 			"/>
			
				<linearGradient id="triangle36_77_" gradientUnits="userSpaceOnUse" x1="-405.6322" y1="326.3282" x2="-405.5824" y2="326.2783" gradientTransform="matrix(215.0507 -106.5514 -113.6548 -229.3874 124453.8594 31640.8105)">
				<stop  offset="0" style="stop-color:#5FA344"/>
				<stop  offset="1" style="stop-color:#6AAA43"/>
			</linearGradient>
			<polygon id="triangle36_996_" class="st79" points="133.9,5.1 149.5,8.6 144.6,13.3 			"/>
			
				<linearGradient id="triangle36_78_" gradientUnits="userSpaceOnUse" x1="-416.9469" y1="328.4048" x2="-416.8974" y2="328.3553" gradientTransform="matrix(111.1095 -55.0515 -90.5687 -182.7931 76213.8281 37085.5977)">
				<stop  offset="0" style="stop-color:#79B543"/>
				<stop  offset="1" style="stop-color:#70AD43"/>
			</linearGradient>
			<polygon id="triangle36_995_" class="st80" points="151.9,18.2 149.5,8.6 144.6,13.3 			"/>
			
				<linearGradient id="triangle36_79_" gradientUnits="userSpaceOnUse" x1="-400.0396" y1="329.0044" x2="-399.9893" y2="328.9541" gradientTransform="matrix(272.3976 -134.9651 -69.2584 -139.783 131840.9844 -7972.4893)">
				<stop  offset="0" style="stop-color:#4C984C"/>
				<stop  offset="1" style="stop-color:#549E45"/>
			</linearGradient>
			<polygon id="triangle36_932_" class="st81" points="85.5,28.8 91.2,34.3 101.4,25.4 			"/>
			
				<linearGradient id="triangle36_80_" gradientUnits="userSpaceOnUse" x1="-400.0373" y1="326.6102" x2="-399.9883" y2="326.5612" gradientTransform="matrix(272.3976 -134.9651 -94.1204 -189.9615 139792.625 8076.1475)">
				<stop  offset="0" style="stop-color:#46964F"/>
				<stop  offset="1" style="stop-color:#4C974C"/>
			</linearGradient>
			<polygon id="triangle36_931_" class="st82" points="85.5,28.8 89.1,20.2 101.4,25.4 			"/>
			
				<linearGradient id="triangle36_81_" gradientUnits="userSpaceOnUse" x1="-402.3158" y1="326.6164" x2="-402.2664" y2="326.5671" gradientTransform="matrix(207.8824 -102.9996 -94.1204 -189.9615 114465.1719 20625.1602)">
				<stop  offset="0" style="stop-color:#48944E"/>
				<stop  offset="1" style="stop-color:#519C46"/>
			</linearGradient>
			<polygon id="triangle36_930_" class="st83" points="89.1,20.2 102.2,19.7 101.4,25.4 			"/>
			
				<linearGradient id="triangle36_82_" gradientUnits="userSpaceOnUse" x1="-414.2744" y1="328.2802" x2="-414.2239" y2="328.2296" gradientTransform="matrix(89.6045 -44.3964 -76.3618 -154.1197 62288.0312 32222.916)">
				<stop  offset="0" style="stop-color:#559D45"/>
				<stop  offset="1" style="stop-color:#5AA144"/>
			</linearGradient>
			<polygon id="triangle36_929_" class="st84" points="102.2,19.7 107.5,26.2 101.4,25.4 			"/>
			
				<linearGradient id="triangle36_83_" gradientUnits="userSpaceOnUse" x1="-403.4047" y1="328.6224" x2="-403.3539" y2="328.5717" gradientTransform="matrix(172.0406 -85.2411 -83.4652 -168.4564 96920.1953 21007.4375)">
				<stop  offset="0" style="stop-color:#61A744"/>
				<stop  offset="1" style="stop-color:#5BA345"/>
			</linearGradient>
			<polygon id="triangle36_928_" class="st85" points="93.8,42.9 91.2,34.3 100,32.9 			"/>
			
				<linearGradient id="triangle36_84_" gradientUnits="userSpaceOnUse" x1="-403.396" y1="327.0354" x2="-403.346" y2="326.9854" gradientTransform="matrix(172.0406 -85.2411 -115.4306 -232.9716 107241.6484 41839.043)">
				<stop  offset="0" style="stop-color:#67AA44"/>
				<stop  offset="1" style="stop-color:#6BAC44"/>
			</linearGradient>
			<polygon id="triangle36_927_" class="st86" points="93.8,42.9 102.5,45.4 100,32.9 			"/>
			
				<linearGradient id="triangle36_85_" gradientUnits="userSpaceOnUse" x1="-401.3753" y1="331.147" x2="-401.3253" y2="331.0969" gradientTransform="matrix(225.8032 -111.8789 -56.8274 -114.6937 109540.5859 -6895.189)">
				<stop  offset="0" style="stop-color:#58A045"/>
				<stop  offset="1" style="stop-color:#59A244"/>
			</linearGradient>
			<polygon id="triangle36_926_" class="st87" points="91.2,34.3 101.4,25.4 100,32.9 			"/>
			
				<linearGradient id="triangle36_86_" gradientUnits="userSpaceOnUse" x1="-401.3275" y1="327.0219" x2="-401.2776" y2="326.972" gradientTransform="matrix(240.14 -118.9824 -115.4306 -232.9716 134219.5 28472.2988)">
				<stop  offset="0" style="stop-color:#70B143"/>
				<stop  offset="1" style="stop-color:#6CAC44"/>
			</linearGradient>
			<polygon id="triangle36_925_" class="st88" points="102.5,45.4 112.6,34.5 100,32.9 			"/>
			
				<linearGradient id="triangle36_87_" gradientUnits="userSpaceOnUse" x1="-404.5657" y1="331.1339" x2="-404.5161" y2="331.0843" gradientTransform="matrix(168.4564 -83.4652 -56.8274 -114.6937 87065.9297 4240.3501)">
				<stop  offset="0" style="stop-color:#59A244"/>
				<stop  offset="1" style="stop-color:#5FA544"/>
			</linearGradient>
			<polygon id="triangle36_924_" class="st89" points="101.4,25.4 107.5,26.2 100,32.9 			"/>
			
				<linearGradient id="triangle36_88_" gradientUnits="userSpaceOnUse" x1="-403.7609" y1="328.1235" x2="-403.7109" y2="328.0735" gradientTransform="matrix(182.7931 -90.5687 -90.5687 -182.7931 103621.9219 23438.7266)">
				<stop  offset="0" style="stop-color:#65A744"/>
				<stop  offset="1" style="stop-color:#69AB44"/>
			</linearGradient>
			<polygon id="triangle36_923_" class="st90" points="107.5,26.2 112.6,34.5 100,32.9 			"/>
			
				<linearGradient id="triangle36_89_" gradientUnits="userSpaceOnUse" x1="-402.4533" y1="328.1132" x2="-402.4024" y2="328.0623" gradientTransform="matrix(232.9716 -115.4306 -90.5687 -182.7931 123584.2812 13547.9551)">
				<stop  offset="0" style="stop-color:#66A844"/>
				<stop  offset="1" style="stop-color:#6DAE44"/>
			</linearGradient>
			<polygon id="triangle36_922_" class="st91" points="107.5,26.2 112.6,34.5 120.8,22.6 			"/>
			
				<linearGradient id="triangle36_90_" gradientUnits="userSpaceOnUse" x1="-402.4506" y1="328.9536" x2="-402.3999" y2="328.9028" gradientTransform="matrix(232.9716 -115.4306 -72.8101 -146.9513 117816.0078 1905.9467)">
				<stop  offset="0" style="stop-color:#62A644"/>
				<stop  offset="1" style="stop-color:#62A644"/>
			</linearGradient>
			<polygon id="triangle36_921_" class="st92" points="107.5,26.2 114.7,16.9 120.8,22.6 			"/>
			
				<linearGradient id="triangle36_91_" gradientUnits="userSpaceOnUse" x1="-403.0313" y1="325.6706" x2="-402.982" y2="325.6213" gradientTransform="matrix(218.6349 -108.3272 -159.827 -322.576 140277.3594 61419.5391)">
				<stop  offset="0" style="stop-color:#76B242"/>
				<stop  offset="1" style="stop-color:#7AB542"/>
			</linearGradient>
			<polygon id="triangle36_920_" class="st93" points="112.6,34.5 121.9,41.1 120.8,22.6 			"/>
			
				<linearGradient id="triangle36_92_" gradientUnits="userSpaceOnUse" x1="-403.1604" y1="325.5813" x2="-403.1116" y2="325.5324" gradientTransform="matrix(225.8032 -111.8789 -163.3788 -329.7444 144342.3125 62281.3672)">
				<stop  offset="0" style="stop-color:#86BC40"/>
				<stop  offset="1" style="stop-color:#80B841"/>
			</linearGradient>
			<polygon id="triangle36_919_" class="st94" points="121.9,41.1 133.7,35.7 120.8,22.6 			"/>
			
				<linearGradient id="triangle36_93_" gradientUnits="userSpaceOnUse" x1="-406.313" y1="325.5896" x2="-406.2639" y2="325.5405" gradientTransform="matrix(175.6247 -87.0169 -163.3788 -329.7444 124673.8516 72026.5234)">
				<stop  offset="0" style="stop-color:#87BD40"/>
				<stop  offset="1" style="stop-color:#76B242"/>
			</linearGradient>
			<polygon id="triangle36_918_" class="st95" points="133.7,35.7 133.4,25.2 120.8,22.6 			"/>
			
				<linearGradient id="triangle36_94_" gradientUnits="userSpaceOnUse" x1="-406.0715" y1="326.3048" x2="-406.0213" y2="326.2546" gradientTransform="matrix(179.2089 -88.7928 -124.3099 -250.8925 113453.2578 45826.1211)">
				<stop  offset="0" style="stop-color:#6EAD44"/>
				<stop  offset="1" style="stop-color:#71AD43"/>
			</linearGradient>
			<polygon id="triangle36_917_" class="st96" points="120.8,22.6 133.4,25.2 127.7,13.2 			"/>
			
				<linearGradient id="triangle36_95_" gradientUnits="userSpaceOnUse" x1="-413.4685" y1="326.2951" x2="-413.4173" y2="326.2439" gradientTransform="matrix(118.2779 -58.6033 -124.3099 -250.8925 89593.4219 57647.9766)">
				<stop  offset="0" style="stop-color:#76B142"/>
				<stop  offset="1" style="stop-color:#68A844"/>
			</linearGradient>
			<polygon id="triangle36_916_" class="st97" points="133.4,25.2 134.7,12.3 127.7,13.2 			"/>
			
				<linearGradient id="triangle36_96_" gradientUnits="userSpaceOnUse" x1="-408.7356" y1="329.6142" x2="-408.6852" y2="329.5638" gradientTransform="matrix(157.7039 -78.1377 -63.9308 -129.0304 85657.625 10600.6377)">
				<stop  offset="0" style="stop-color:#65A644"/>
				<stop  offset="1" style="stop-color:#5EA244"/>
			</linearGradient>
			<polygon id="triangle36_915_" class="st98" points="134.7,12.3 133.9,5.1 127.7,13.2 			"/>
			
				<linearGradient id="triangle36_97_" gradientUnits="userSpaceOnUse" x1="-406.7951" y1="328.2632" x2="-406.7465" y2="328.2146" gradientTransform="matrix(164.8722 -81.6894 -79.9135 -161.288 93416.6641 19729.0508)">
				<stop  offset="0" style="stop-color:#5DA444"/>
				<stop  offset="1" style="stop-color:#62A644"/>
			</linearGradient>
			<polygon id="triangle36_914_" class="st99" points="114.7,16.9 120.8,22.6 122.9,12 			"/>
			
				<linearGradient id="triangle36_98_" gradientUnits="userSpaceOnUse" x1="-406.8031" y1="331.9352" x2="-406.7543" y2="331.8863" gradientTransform="matrix(164.8722 -81.6894 -46.1723 -93.1886 82508.9766 -2285.75)">
				<stop  offset="0" style="stop-color:#59A144"/>
				<stop  offset="1" style="stop-color:#589E44"/>
			</linearGradient>
			<polygon id="triangle36_913_" class="st100" points="114.7,16.9 117.7,9.9 122.9,12 			"/>
			
				<linearGradient id="triangle36_99_" gradientUnits="userSpaceOnUse" x1="-406.0818" y1="328.254" x2="-406.0322" y2="328.2043" gradientTransform="matrix(179.2089 -88.7928 -79.9135 -161.288 99122.25 16902.1016)">
				<stop  offset="0" style="stop-color:#67A944"/>
				<stop  offset="1" style="stop-color:#61A444"/>
			</linearGradient>
			<polygon id="triangle36_912_" class="st101" points="120.8,22.6 127.7,13.2 122.9,12 			"/>
			
				<linearGradient id="triangle36_100_" gradientUnits="userSpaceOnUse" x1="-404.3169" y1="333.359" x2="-404.2682" y2="333.3103" gradientTransform="matrix(222.2191 -110.1031 -42.6205 -86.0203 104178.0312 -15831.0732)">
				<stop  offset="0" style="stop-color:#60A344"/>
				<stop  offset="1" style="stop-color:#5AA044"/>
			</linearGradient>
			<polygon id="triangle36_911_" class="st102" points="127.7,13.2 133.9,5.1 122.9,12 			"/>
			
				<linearGradient id="triangle36_101_" gradientUnits="userSpaceOnUse" x1="-416.4532" y1="327.9127" x2="-416.4033" y2="327.8628" gradientTransform="matrix(96.7728 -47.9481 -72.8101 -146.9513 64292.9219 28224.1953)">
				<stop  offset="0" style="stop-color:#549B46"/>
				<stop  offset="1" style="stop-color:#549B46"/>
			</linearGradient>
			<polygon id="triangle36_910_" class="st103" points="117.7,9.9 122.9,12 121.1,4.2 			"/>
			
				<linearGradient id="triangle36_102_" gradientUnits="userSpaceOnUse" x1="-404.3302" y1="327.8958" x2="-404.2805" y2="327.8461" gradientTransform="matrix(222.2191 -110.1031 -72.8101 -146.9513 113842.2109 3673.9661)">
				<stop  offset="0" style="stop-color:#599F44"/>
				<stop  offset="1" style="stop-color:#549A45"/>
			</linearGradient>
			<polygon id="triangle36_909_" class="st104" points="122.9,12 133.9,5.1 121.1,4.2 			"/>
			
				<linearGradient id="triangle36_103_" gradientUnits="userSpaceOnUse" x1="-409.1234" y1="326.2156" x2="-409.0755" y2="326.1677" gradientTransform="matrix(150.5355 -74.586 -83.4652 -168.4564 88931.8516 24434.209)">
				<stop  offset="0" style="stop-color:#3F8D52"/>
				<stop  offset="1" style="stop-color:#428E4F"/>
			</linearGradient>
			<polygon id="triangle36_908_" class="st105" points="116.9,-2.6 124.2,-7.3 121.1,4.2 			"/>
			
				<linearGradient id="triangle36_104_" gradientUnits="userSpaceOnUse" x1="-406.154" y1="324.497" x2="-406.1035" y2="324.4465" gradientTransform="matrix(189.9615 -94.1204 -143.8443 -290.3185 123947.6562 55975.168)">
				<stop  offset="0" style="stop-color:#448E4E"/>
				<stop  offset="1" style="stop-color:#509847"/>
			</linearGradient>
			<polygon id="triangle36_907_" class="st106" points="124.2,-7.3 133.9,5.1 121.1,4.2 			"/>
			
				<linearGradient id="triangle36_105_" gradientUnits="userSpaceOnUse" x1="-401.9545" y1="326.851" x2="-401.9051" y2="326.8015" gradientTransform="matrix(258.0609 -127.8616 -79.9135 -161.288 129953.8594 1326.8428)">
				<stop  offset="0" style="stop-color:#44914E"/>
				<stop  offset="1" style="stop-color:#4A944A"/>
			</linearGradient>
			<polygon id="triangle36_906_" class="st107" points="103.3,7.5 117.7,9.9 116.8,1 			"/>
			
				<linearGradient id="triangle36_106_" gradientUnits="userSpaceOnUse" x1="-401.2162" y1="333.7265" x2="-401.1646" y2="333.675" gradientTransform="matrix(286.7343 -142.0685 -30.1896 -60.931 125219.3281 -36661.3398)">
				<stop  offset="0" style="stop-color:#418E51"/>
				<stop  offset="1" style="stop-color:#3F8D51"/>
			</linearGradient>
			<polygon id="triangle36_905_" class="st108" points="103.3,7.5 116.9,-2.6 116.8,1 			"/>
			
				<linearGradient id="triangle36_107_" gradientUnits="userSpaceOnUse" x1="-416.4641" y1="326.9635" x2="-416.4147" y2="326.9141" gradientTransform="matrix(96.7728 -47.9481 -78.1377 -157.7039 65964.625 31598.1621)">
				<stop  offset="0" style="stop-color:#519948"/>
				<stop  offset="1" style="stop-color:#49934C"/>
			</linearGradient>
			<polygon id="triangle36_904_" class="st109" points="117.7,9.9 121.1,4.2 116.8,1 			"/>
			
				<linearGradient id="triangle36_108_" gradientUnits="userSpaceOnUse" x1="-445.1298" y1="326.8188" x2="-445.0796" y2="326.7686" gradientTransform="matrix(43.0101 -21.3103 -74.586 -150.5355 43636.3711 39709.3711)">
				<stop  offset="0" style="stop-color:#418D51"/>
				<stop  offset="1" style="stop-color:#46924D"/>
			</linearGradient>
			<polygon id="triangle36_903_" class="st110" points="116.9,-2.6 121.1,4.2 116.8,1 			"/>
			
				<linearGradient id="triangle36_109_" gradientUnits="userSpaceOnUse" x1="-410.0682" y1="324.3806" x2="-410.0195" y2="324.3319" gradientTransform="matrix(150.5355 -74.586 -149.1719 -301.071 110242.2734 67066.2422)">
				<stop  offset="0" style="stop-color:#408B50"/>
				<stop  offset="1" style="stop-color:#46914B"/>
			</linearGradient>
			<polygon id="triangle36_899_" class="st111" points="124.2,-7.3 133.9,5.1 131.8,-11.7 			"/>
			
				<linearGradient id="triangle36_110_" gradientUnits="userSpaceOnUse" x1="-402.3548" y1="324.3667" x2="-402.3053" y2="324.3171" gradientTransform="matrix(304.6552 -150.9478 -149.1719 -301.071 171091.6094 36917.168)">
				<stop  offset="0" style="stop-color:#519846"/>
				<stop  offset="1" style="stop-color:#448F4D"/>
			</linearGradient>
			<polygon id="triangle36_883_" class="st112" points="133.9,5.1 131.8,-11.7 148,-6.2 			"/>
			
				<linearGradient id="triangle36_111_" gradientUnits="userSpaceOnUse" x1="-402.3438" y1="330.7655" x2="-402.2931" y2="330.7148" gradientTransform="matrix(304.6552 -150.9478 -51.4998 -103.9412 139743.4531 -26352.2441)">
				<stop  offset="0" style="stop-color:#579D44"/>
				<stop  offset="1" style="stop-color:#529945"/>
			</linearGradient>
			<polygon id="triangle36_882_" class="st113" points="133.9,5.1 149.1,-0.6 148,-6.2 			"/>
		</g>
	</g>
	<g>
		<path class="st0" d="M39.8,67c0-0.2,0-0.3,0-0.4c0-0.1,0-0.1,0-0.2c0,0,0-0.1-0.1-0.1c-0.1-0.1-0.1-0.1-0.1-0.2c0,0,0-0.1,0-0.1
			c0,0,0-0.1,0.1-0.1c0-0.1,0.1-0.1,0.2-0.2c0.1-0.1,0.1-0.1,0.2-0.1s0.1-0.1,0.2-0.1c0.1,0,0.1,0,0.2,0.1c0.1,0,0.1,0.1,0.1,0.1
			c0,0.1,0,0.1,0,0.2c0,0.1,0,0.1,0,0.2c0,0.2,0,0.6-0.1,1.1c0,0.5,0,1.3,0,2.2c0,0.3,0,0.5-0.1,0.6s-0.1,0.2-0.2,0.2
			c0,0-0.1,0-0.1,0c0,0-0.1,0-0.1-0.1c0-0.1,0-0.1-0.1-0.2c0-0.1,0-0.3,0-0.4c0-0.2,0-0.4,0-0.7c0-0.3,0-0.6,0-1
			C39.8,67.4,39.8,67.2,39.8,67z"/>
		<path class="st0" d="M43.5,66.9c0-0.1,0-0.2,0-0.3c0-0.2,0-0.3-0.1-0.4c-0.1-0.1-0.1-0.1-0.2-0.2C43,66,43,66,42.9,66
			c-0.1,0-0.1-0.1-0.1-0.1c0,0,0-0.1,0.1-0.1l0.3-0.2c0,0,0.1-0.1,0.1-0.1c0,0,0.1,0,0.1,0c0,0,0.1,0,0.1,0c0,0,0.1,0.1,0.1,0.1
			c0.3,0.4,0.6,0.7,0.9,1.1s0.6,0.7,0.9,1c0.3,0.3,0.5,0.5,0.7,0.8c0.2,0.2,0.3,0.3,0.4,0.4c0-0.3,0.1-0.5,0.1-0.8
			c0-0.2,0-0.5,0-0.7c0-0.2,0-0.4,0-0.5s0-0.3,0-0.4s0-0.2,0-0.2c0-0.1,0-0.1,0-0.1c0,0,0-0.1,0.1-0.1c0,0,0.1-0.1,0.1-0.1
			c0.1,0,0.1,0,0.2,0c0.1,0,0.1,0,0.2,0c0.1,0,0.1,0,0.1,0.1c0,0,0,0.1,0,0.2c0,0.1,0,0.1,0,0.3c0,0.1-0.1,0.3-0.1,0.5
			c0,0.2-0.1,0.5-0.1,0.8s0,0.7,0,1.1c0,0.1,0,0.3,0,0.4s0,0.3,0,0.5c0,0.1,0,0.1-0.1,0.2c0,0.1-0.1,0.1-0.2,0.2
			c-0.1,0-0.1,0.1-0.2,0.1c-0.1,0-0.1,0.1-0.1,0.1c0,0,0,0-0.1-0.1c0-0.1,0-0.1-0.1-0.2c0-0.1-0.1-0.2-0.1-0.3S46.1,69.1,46,69
			c-0.2-0.2-0.4-0.5-0.6-0.7c-0.2-0.2-0.4-0.4-0.6-0.6c-0.2-0.2-0.4-0.4-0.5-0.5c-0.2-0.2-0.3-0.3-0.3-0.4c0,0.2,0,0.4,0,0.7
			c0,0.2,0,0.5,0,0.7c0,0.2,0,0.4,0,0.6c0,0.2,0,0.3,0,0.5c0,0.1,0,0.2,0,0.3c0,0.1,0,0.2,0,0.3c0,0,0,0.1,0,0.1
			c0,0-0.1,0.1-0.1,0.1c-0.1,0-0.2,0.1-0.3,0.1s-0.1,0-0.2,0c-0.1,0-0.1,0-0.1-0.1c0,0,0-0.1,0-0.1c0,0,0.1-0.1,0.1-0.1
			s0.1-0.1,0.1-0.2c0-0.1,0.1-0.2,0.1-0.4l0.1-1.9C43.4,67.1,43.5,67,43.5,66.9z"/>
		<path class="st0" d="M49.4,66.2c0,0-0.1,0-0.2,0c-0.1,0-0.1,0-0.1-0.1c0-0.1,0-0.1,0-0.2c0,0,0-0.1,0.1-0.1
			c0.1-0.1,0.1-0.1,0.2-0.1c0.1,0,0.1,0,0.2,0c0.1,0,0.2,0,0.3,0c0.1,0,0.2,0,0.4,0c0.2,0,0.3,0,0.6,0c0.3,0,0.6,0,0.9,0
			c0.3,0,0.6,0,0.9,0c0.1,0,0.1,0,0.1,0.1c0,0,0,0,0,0.1c0,0-0.1,0.1-0.1,0.1s-0.1,0.1-0.1,0.1c0,0-0.1,0-0.1,0c-0.1,0-0.2,0-0.3,0
			c-0.1,0-0.2,0-0.3,0c-0.1,0-0.2,0-0.3,0c-0.1,0-0.2,0-0.2,0c0,0.2,0,0.3-0.1,0.5c0,0.2,0,0.4,0,0.6s0,0.5,0,0.8c0,0.3,0,0.6,0,1
			c0,0.1,0,0.2,0,0.2c0,0.1,0.1,0.2,0.1,0.2c0,0.1,0.1,0.1,0.2,0.2c0.1,0,0.2,0.1,0.3,0.1c0,0,0.1,0,0.1,0s0.1,0,0.1,0
			c0,0,0.1,0,0.1,0.1s0,0.1,0,0.1c0,0.1,0,0.1-0.1,0.2c-0.1,0-0.1,0.1-0.2,0.1c-0.1,0-0.2,0.1-0.3,0.1c-0.2,0-0.3,0-0.4-0.1
			c-0.1-0.1-0.2-0.1-0.3-0.2s-0.2-0.2-0.2-0.3s-0.1-0.2-0.1-0.3c0-0.1,0-0.1,0-0.2c0-0.1,0-0.2,0-0.3c0-0.1,0-0.3,0-0.5
			c0-0.2,0-0.4,0-0.7c0-0.2,0-0.5,0-0.7c0-0.2,0-0.5,0-0.7h-0.9C49.5,66.2,49.4,66.2,49.4,66.2z"/>
		<path class="st0" d="M56.7,67.7C56.7,67.7,56.7,67.7,56.7,67.7c-0.1,0.1-0.1,0.1-0.1,0.2s-0.1,0.1-0.1,0.1c0,0-0.1,0-0.1,0
			c-0.2,0-0.5,0-0.7,0c-0.2,0-0.4,0-0.5,0c0,0.6,0.1,1.1,0.4,1.4s0.6,0.5,1.2,0.5c0.1,0,0.2,0,0.2,0c0,0,0.1,0.1,0.1,0.1
			c0,0,0,0.1-0.1,0.1c-0.1,0-0.2,0.1-0.4,0.1c-0.3,0-0.5,0-0.8-0.1c-0.2-0.1-0.4-0.2-0.5-0.3c-0.1-0.1-0.3-0.2-0.3-0.4
			c-0.1-0.1-0.1-0.3-0.2-0.5c0-0.2-0.1-0.3-0.1-0.5c0-0.2,0-0.3,0-0.5c0-0.5,0-1,0.1-1.3c0.1-0.4,0.2-0.6,0.4-0.8s0.3-0.4,0.5-0.5
			c0.2-0.1,0.4-0.1,0.6-0.1c0.2,0,0.4,0,0.4,0.1c0.1,0,0.1,0.1,0.1,0.2c0,0.1,0,0.2-0.1,0.2h-0.5c-0.1,0-0.2,0-0.4,0.1
			c-0.1,0.1-0.2,0.1-0.3,0.3c-0.1,0.1-0.2,0.3-0.2,0.6c-0.1,0.2-0.1,0.6-0.1,1c0,0,0.1-0.1,0.1-0.1c0.1,0,0.1,0,0.2,0h1.1
			C56.6,67.6,56.7,67.6,56.7,67.7z"/>
		<path class="st0" d="M62,68.5c0,0,0.1,0,0.2,0c0,0,0.1,0,0.1,0c0,0,0,0,0.1,0.1c0,0,0,0.1,0,0.2c0,0.1,0,0.2,0,0.4
			c0,0.3,0,0.6,0,0.8c0,0.2,0,0.4,0,0.5c0,0.1,0,0.1,0,0.2c0,0-0.1,0-0.2,0c0,0-0.1,0-0.1,0c0,0,0,0-0.1-0.1c0,0,0-0.1-0.1-0.2
			c0-0.1,0-0.2-0.1-0.3c0-0.1-0.1-0.2-0.2-0.2c0,0-0.1,0-0.1,0c-0.1,0-0.1,0-0.2,0c-0.1,0-0.2,0-0.2,0c-0.1,0-0.2,0-0.2,0
			c-0.4,0-0.7-0.1-0.9-0.2c-0.2-0.1-0.4-0.3-0.5-0.5c-0.1-0.2-0.2-0.4-0.3-0.6c-0.1-0.2-0.1-0.4-0.1-0.6c0-0.3,0-0.6,0.1-1
			s0.3-0.6,0.5-0.8c0.2-0.2,0.5-0.4,0.8-0.6s0.7-0.2,1.2-0.2c0.3,0,0.5,0,0.7,0.1c0.2,0.1,0.2,0.2,0.2,0.3c0,0,0,0.1,0,0.1
			c0,0-0.1,0.1-0.1,0.1c0,0-0.1,0.1-0.1,0.1c0,0-0.1,0-0.1,0c0,0-0.1,0-0.1,0S62,66.1,61.9,66c-0.1,0-0.1-0.1-0.1-0.1s-0.1,0-0.2,0
			c-0.3,0-0.5,0.1-0.7,0.2c-0.2,0.2-0.4,0.3-0.6,0.6s-0.3,0.5-0.4,0.8s-0.1,0.5-0.1,0.8c0,0.3,0,0.5,0.1,0.7s0.1,0.3,0.2,0.4
			s0.2,0.2,0.4,0.2c0.1,0,0.3,0.1,0.5,0.1c0.1,0,0.3,0,0.4-0.1c0.1,0,0.2-0.1,0.3-0.1c0.1-0.1,0.2-0.1,0.2-0.2s0.1-0.1,0.1-0.2
			l0.1-0.5C61.9,68.5,62,68.5,62,68.5z"/>
		<path class="st0" d="M66,65.3c0,0,0.1,0,0.2,0c0.2,0,0.4,0,0.5,0.1c0.2,0.1,0.3,0.1,0.4,0.2s0.2,0.2,0.3,0.3s0.1,0.2,0.1,0.4
			c0,0.2,0,0.3-0.1,0.5c-0.1,0.1-0.1,0.2-0.2,0.3c-0.1,0.1-0.2,0.2-0.3,0.2c-0.1,0.1-0.2,0.1-0.3,0.1c-0.1,0-0.2,0.1-0.2,0.1
			s0,0,0,0s0,0,0.1,0.1c0,0,0.1,0.1,0.3,0.2c0.1,0.1,0.3,0.2,0.5,0.3c0.2,0.1,0.4,0.3,0.6,0.4c0.2,0.1,0.3,0.2,0.5,0.3
			c0.2,0.1,0.3,0.2,0.5,0.3s0.3,0.2,0.4,0.3s0.2,0.1,0.3,0.2c0.2,0.1,0.4,0.2,0.6,0.2c0,0,0,0,0.1,0c0,0,0,0,0,0.1
			c0,0,0,0.1-0.1,0.1c0,0.1-0.1,0.1-0.2,0.2c-0.1,0.1-0.1,0.1-0.2,0.1c-0.1,0-0.1,0.1-0.1,0.1c-0.1,0-0.2-0.1-0.4-0.2
			s-0.4-0.3-0.6-0.4c-0.2-0.2-0.5-0.4-0.8-0.6c-0.3-0.2-0.6-0.4-0.8-0.6s-0.5-0.3-0.8-0.5c-0.2-0.1-0.4-0.2-0.6-0.2
			c0,0.1,0,0.2,0,0.3c0,0.1,0,0.3,0,0.4v0.2c0,0.2,0,0.4,0,0.5s0,0.2,0,0.3s0,0.2,0,0.2c0,0.1,0,0.1,0,0.1c0,0.1,0,0.1,0,0.1
			c0,0-0.1,0-0.2,0c0,0-0.1,0-0.1,0s-0.1,0-0.2,0c-0.1,0-0.1,0-0.2-0.1c0,0-0.1-0.1-0.1-0.1c0,0,0-0.1,0-0.1c0,0,0-0.1,0-0.1
			c0,0,0-0.1,0.1-0.2c0-0.1,0-0.2,0-0.2c0,0,0-0.1,0-0.3s0-0.3,0-0.6c0-0.2,0-0.4,0-0.7c0-0.2,0-0.5,0-0.7c0-0.1,0-0.2,0-0.3
			c0-0.1,0-0.3,0-0.4c0-0.1,0-0.2,0-0.4c0-0.1,0-0.2-0.1-0.2c-0.1-0.1-0.2-0.1-0.2-0.2c0-0.1,0.1-0.1,0.2-0.1l0.7-0.2
			C65.9,65.3,66,65.3,66,65.3z M65.8,67.3C65.8,67.4,65.8,67.4,65.8,67.3c0.1,0,0.1,0,0.2,0c0.1,0,0.2-0.1,0.3-0.1
			c0,0,0.1,0,0.2-0.1s0.1-0.1,0.2-0.1s0.1-0.1,0.2-0.1c0-0.1,0.1-0.1,0.1-0.2c0.1-0.2,0.1-0.3,0.1-0.5c0-0.1,0-0.1,0-0.2
			s-0.1-0.1-0.1-0.1c0,0,0,0-0.1-0.1c0,0-0.1,0-0.1-0.1c0,0-0.1,0-0.1,0c0,0-0.1,0-0.1,0c0,0-0.1,0-0.1,0c-0.1,0-0.1,0-0.2,0
			c-0.1,0-0.1,0-0.2,0.1c0,0-0.1,0-0.1,0.1c0,0.1,0,0.2-0.1,0.4s0,0.3,0,0.4s0,0.3,0,0.4C65.8,67.1,65.8,67.2,65.8,67.3
			C65.8,67.3,65.8,67.3,65.8,67.3z"/>
		<path class="st0" d="M72.7,68.9c-0.1,0-0.2,0.1-0.3,0.3L72,69.9c0,0,0,0.1,0,0.1s0,0.1-0.1,0.1c-0.1,0-0.3,0-0.4,0
			c-0.1,0-0.1-0.1-0.1-0.1c0,0,0-0.1,0.1-0.1c0.1-0.1,0.1-0.1,0.2-0.2c0.1-0.1,0.2-0.3,0.3-0.4c0.1-0.2,0.2-0.3,0.3-0.5
			c0.1-0.2,0.2-0.4,0.3-0.5c0.1-0.2,0.2-0.4,0.3-0.5c0.1-0.2,0.2-0.3,0.2-0.4s0.1-0.2,0.1-0.2c0-0.1-0.1-0.2-0.3-0.4l-0.6-0.6
			c-0.1-0.1-0.1-0.1-0.2-0.2c-0.1,0-0.1-0.1-0.1-0.1c0,0,0,0,0.1-0.1c0,0,0.1-0.1,0.1-0.1c0.1,0,0.1-0.1,0.2-0.1s0.1,0,0.1,0
			c0.1,0,0.1,0,0.2,0s0.1,0,0.1,0c0,0,0.1,0,0.1,0.1c0,0,0,0.1,0.1,0.1c0,0,0,0.1,0.1,0.2c0.1,0.1,0.1,0.1,0.2,0.2
			c0.4,0.5,0.8,0.9,1.1,1.3c0.3,0.3,0.6,0.7,0.8,0.9c0.3,0.3,0.5,0.5,0.7,0.7c0.2,0.2,0.5,0.4,0.8,0.7c0.1,0,0.1,0.1,0.1,0.1
			c0,0,0.1,0,0.1,0c0,0,0.1,0,0.1,0s0,0.1,0,0.1c0,0,0,0.1,0,0.1c0,0-0.1,0.1-0.1,0.1c0,0-0.1,0.1-0.1,0.1c0,0-0.1,0-0.1,0h-0.2
			c0,0-0.1,0-0.1-0.1s0-0.1-0.1-0.1c-0.2-0.2-0.5-0.6-1-1.1h-2.1C72.9,68.8,72.8,68.9,72.7,68.9z M73.1,68.1
			c-0.1,0.1-0.1,0.2-0.1,0.2c0,0,0,0.1,0,0.1c0,0,0,0,0,0c0,0,0,0,0.1,0c0.1,0,0.1,0,0.2,0c0.1,0,0.2,0,0.4,0c0.2,0,0.4,0,0.5,0
			c0.1,0,0.2,0,0.3,0c0.1,0,0.1,0,0.2,0c0,0,0.1,0,0.1,0l-1.2-1.2L73.1,68.1z"/>
		<path class="st0" d="M80.4,70.1c-0.1,0-0.3,0-0.5-0.1s-0.4-0.2-0.5-0.3c-0.2-0.1-0.3-0.3-0.4-0.6c-0.1-0.2-0.2-0.5-0.2-0.9
			c0-0.4,0-0.7,0.1-1c0.1-0.3,0.2-0.5,0.3-0.7c0.1-0.2,0.3-0.4,0.5-0.5c0.2-0.1,0.4-0.2,0.6-0.3s0.4-0.1,0.6-0.2s0.3,0,0.5,0
			c0.2,0,0.4,0,0.5,0.1c0.1,0.1,0.2,0.2,0.2,0.2c0,0,0,0.1,0,0.1s-0.1,0.1-0.1,0.1c0,0-0.1,0.1-0.1,0.1c0,0-0.1,0-0.1,0
			s-0.1,0-0.1-0.1c0,0-0.1-0.1-0.1-0.1c0,0-0.1-0.1-0.1-0.1c-0.1,0-0.1-0.1-0.2-0.1c-0.2,0-0.5,0-0.7,0.1c-0.2,0.1-0.3,0.2-0.5,0.3
			c-0.1,0.1-0.2,0.3-0.3,0.4c-0.1,0.2-0.1,0.3-0.2,0.5c0,0.2-0.1,0.3-0.1,0.4c0,0.1,0,0.2,0,0.3c0,0.2,0,0.3,0.1,0.5
			c0.1,0.2,0.2,0.4,0.3,0.5c0.1,0.2,0.3,0.3,0.4,0.4c0.2,0.1,0.4,0.2,0.6,0.2c0.2,0,0.4,0,0.5-0.1c0.2-0.1,0.3-0.1,0.4-0.2
			c0.1-0.1,0.2-0.2,0.3-0.2c0.1-0.1,0.1-0.1,0.2-0.1c0.1,0,0.1,0,0.1,0c0,0,0,0.1,0,0.1c0,0,0,0.1-0.1,0.1c0,0-0.1,0.1-0.1,0.2
			c-0.1,0.1-0.1,0.1-0.2,0.2c-0.1,0.1-0.2,0.1-0.2,0.2c-0.1,0-0.2,0.1-0.4,0.1c-0.2,0-0.3,0.1-0.5,0.1c-0.1,0.2-0.1,0.3-0.1,0.3
			c0,0,0,0,0.1,0.1s0.1,0.1,0.3,0.1c0.1,0,0.2,0.1,0.2,0.1c0,0.1,0.1,0.1,0.1,0.2c0,0.1,0,0.2-0.1,0.3c-0.1,0.1-0.2,0.1-0.3,0.2
			c-0.1,0-0.2,0.1-0.3,0.1s-0.2,0-0.3,0c0,0-0.1,0-0.1,0s0,0,0-0.1c0,0,0-0.1,0.1-0.1c0.1,0,0.1,0,0.2-0.1c0.1,0,0.1-0.1,0.2-0.1
			s0.1-0.1,0.1-0.1c0,0,0-0.1,0-0.1c0,0,0-0.1,0-0.1c0,0,0-0.1-0.1-0.1l-0.3-0.1c-0.1,0-0.1-0.1-0.1-0.1c0-0.1,0-0.1,0.1-0.2
			L80.4,70.1L80.4,70.1z"/>
		<path class="st0" d="M84.9,68.9c-0.1,0-0.2,0.1-0.3,0.3l-0.4,0.7c0,0,0,0.1,0,0.1s0,0.1-0.1,0.1c-0.1,0-0.3,0-0.4,0
			c-0.1,0-0.1-0.1-0.1-0.1c0,0,0-0.1,0.1-0.1c0.1-0.1,0.1-0.1,0.2-0.2c0.1-0.1,0.2-0.3,0.3-0.4c0.1-0.2,0.2-0.3,0.3-0.5
			s0.2-0.4,0.3-0.5c0.1-0.2,0.2-0.4,0.3-0.5c0.1-0.2,0.2-0.3,0.2-0.4s0.1-0.2,0.1-0.2c0-0.1-0.1-0.2-0.3-0.4l-0.6-0.6
			c-0.1-0.1-0.1-0.1-0.2-0.2c-0.1,0-0.1-0.1-0.1-0.1c0,0,0,0,0.1-0.1c0,0,0.1-0.1,0.1-0.1c0.1,0,0.1-0.1,0.2-0.1s0.1,0,0.1,0
			c0.1,0,0.1,0,0.2,0c0,0,0.1,0,0.1,0c0,0,0.1,0,0.1,0.1c0,0,0,0.1,0.1,0.1c0,0,0,0.1,0.1,0.2c0.1,0.1,0.1,0.1,0.2,0.2
			c0.4,0.5,0.8,0.9,1.1,1.3c0.3,0.3,0.6,0.7,0.8,0.9c0.3,0.3,0.5,0.5,0.7,0.7c0.2,0.2,0.5,0.4,0.8,0.7c0.1,0,0.1,0.1,0.1,0.1
			c0,0,0.1,0,0.1,0c0,0,0.1,0,0.1,0s0,0.1,0,0.1c0,0,0,0.1,0,0.1c0,0-0.1,0.1-0.1,0.1c0,0-0.1,0.1-0.1,0.1c0,0-0.1,0-0.1,0h-0.2
			c0,0-0.1,0-0.1-0.1s0-0.1-0.1-0.1c-0.2-0.2-0.5-0.6-1-1.1h-2.1C85.1,68.8,85,68.9,84.9,68.9z M84,64.9c0-0.1,0.1-0.1,0.1-0.2
			c0.1-0.1,0.1-0.1,0.2-0.2c0.1,0,0.1-0.1,0.2-0.1c0.1,0,0.2,0,0.3,0.1c0.1,0,0.2,0.1,0.3,0.1c0.1,0,0.2,0.1,0.3,0.1
			c0.1,0,0.1,0.1,0.2,0.1c0,0,0.1,0,0.1-0.1s0.1-0.1,0.2-0.1c0.1,0,0.1-0.1,0.2-0.1s0.1-0.1,0.1-0.1c0,0,0,0,0.1,0.1
			c0,0,0,0.1,0,0.1c0,0,0,0.1-0.1,0.1s-0.1,0.1-0.2,0.2s-0.1,0.1-0.2,0.2s-0.1,0.1-0.2,0.1c-0.1,0-0.2,0-0.3-0.1S85.1,65,85,65
			c-0.1,0-0.2-0.1-0.3-0.1c-0.1,0-0.2-0.1-0.2-0.1c0,0-0.1,0-0.1,0c0,0-0.1,0.1-0.1,0.1c0,0-0.1,0.1-0.1,0.1s-0.1,0-0.1,0
			c0,0,0,0-0.1,0c0,0,0-0.1,0-0.1C83.9,65,84,64.9,84,64.9z M85.2,68.1c-0.1,0.1-0.1,0.2-0.1,0.2c0,0,0,0.1,0,0.1c0,0,0,0,0,0
			c0,0,0,0,0.1,0c0.1,0,0.1,0,0.2,0c0.1,0,0.2,0,0.4,0c0.2,0,0.4,0,0.5,0c0.1,0,0.2,0,0.3,0c0.1,0,0.1,0,0.2,0c0,0,0.1,0,0.1,0
			l-1.2-1.2L85.2,68.1z"/>
		<path class="st0" d="M90.9,67.2c0.1-0.3,0.2-0.5,0.4-0.7c0.2-0.2,0.4-0.4,0.6-0.5s0.6-0.2,0.9-0.2c0.2,0,0.4,0,0.6,0.1
			c0.2,0.1,0.4,0.2,0.5,0.4c0.1,0.2,0.3,0.4,0.3,0.6c0.1,0.3,0.1,0.6,0.1,0.9c0,0.3-0.1,0.6-0.2,0.9c-0.1,0.3-0.2,0.5-0.4,0.7
			c-0.2,0.2-0.4,0.3-0.6,0.4s-0.5,0.1-0.7,0.1c-0.2,0-0.4,0-0.6-0.1s-0.4-0.2-0.5-0.4c-0.2-0.2-0.3-0.4-0.4-0.6s-0.1-0.5-0.1-0.8
			C90.8,67.7,90.8,67.4,90.9,67.2z M91.4,68.2c0,0.2,0.1,0.4,0.2,0.5c0.1,0.2,0.2,0.3,0.4,0.5s0.4,0.2,0.6,0.2c0.1,0,0.2,0,0.4-0.1
			c0.1,0,0.3-0.1,0.4-0.2s0.2-0.3,0.3-0.5c0.1-0.2,0.1-0.5,0.1-0.8c0-0.3,0-0.6-0.1-0.8s-0.2-0.4-0.3-0.5c-0.1-0.1-0.2-0.2-0.4-0.3
			s-0.3-0.1-0.4-0.1c-0.2,0-0.4,0-0.5,0.1s-0.3,0.2-0.4,0.4s-0.2,0.3-0.2,0.5c-0.1,0.2-0.1,0.4-0.1,0.6
			C91.4,67.9,91.4,68.1,91.4,68.2z"/>
		<path class="st0" d="M102,67.7C102,67.7,102,67.7,102,67.7c-0.1,0.1-0.1,0.1-0.1,0.2c0,0-0.1,0.1-0.1,0.1c0,0-0.1,0-0.1,0
			c-0.2,0-0.5,0-0.7,0c-0.2,0-0.4,0-0.5,0c0,0.6,0.1,1.1,0.4,1.4s0.6,0.5,1.2,0.5c0.1,0,0.2,0,0.2,0c0,0,0.1,0.1,0.1,0.1
			c0,0,0,0.1-0.1,0.1c-0.1,0-0.2,0.1-0.4,0.1c-0.3,0-0.5,0-0.8-0.1c-0.2-0.1-0.4-0.2-0.5-0.3c-0.1-0.1-0.3-0.2-0.3-0.4
			c-0.1-0.1-0.1-0.3-0.2-0.5c0-0.2-0.1-0.3-0.1-0.5c0-0.2,0-0.3,0-0.5c0-0.5,0-1,0.1-1.3c0.1-0.4,0.2-0.6,0.4-0.8
			c0.2-0.2,0.3-0.4,0.5-0.5s0.4-0.1,0.6-0.1c0.2,0,0.4,0,0.4,0.1c0.1,0,0.1,0.1,0.1,0.2c0,0.1,0,0.2-0.1,0.2h-0.5
			c-0.1,0-0.2,0-0.4,0.1c-0.1,0.1-0.2,0.1-0.3,0.3c-0.1,0.1-0.2,0.3-0.2,0.6s-0.1,0.6-0.1,1c0,0,0.1-0.1,0.1-0.1c0.1,0,0.1,0,0.2,0
			h1.1C101.9,67.6,102,67.6,102,67.7z"/>
		<path class="st0" d="M108.4,70.2c0,0-0.1,0-0.1,0l-0.4-0.1c-0.1,0-0.2,0-0.2,0c0,0-0.1,0-0.1-0.1c0,0,0-0.1,0-0.1s0-0.1,0.1-0.1
			c0,0,0.1-0.1,0.1-0.1c0-0.1,0-0.1,0-0.2c0-0.3,0-0.6,0-1c0-0.3,0-0.6,0-0.9c0-0.1,0-0.2,0-0.4c0-0.1,0-0.3,0-0.4s0-0.3,0-0.4
			c0-0.1,0-0.2,0-0.3c0,0,0-0.1-0.1-0.1c0,0-0.1,0-0.1,0c0,0-0.1,0-0.1,0s0,0,0-0.1c0-0.1,0-0.1,0.1-0.2c0,0,0.1-0.1,0.3-0.1
			l0.5-0.2c0.1,0,0.2-0.1,0.3-0.1c0.1,0,0.1,0,0.2,0c0,0,0.1,0,0.2,0c0.1,0,0.2,0,0.4,0.1c0.2,0,0.3,0.1,0.5,0.2
			c0.2,0.1,0.3,0.2,0.5,0.3c0.1,0.1,0.3,0.3,0.4,0.5c0.1,0.2,0.1,0.5,0.1,0.8c0,0.3,0,0.5,0,0.7c0,0.2,0,0.4-0.1,0.5
			s-0.1,0.3-0.2,0.4s-0.1,0.3-0.2,0.4c-0.1,0.1-0.1,0.2-0.2,0.2s-0.2,0.1-0.3,0.2c-0.1,0.1-0.2,0.1-0.4,0.2s-0.3,0.1-0.4,0.1
			c-0.1,0-0.2,0.1-0.3,0.1c-0.1,0-0.1,0-0.2,0C108.5,70.2,108.4,70.2,108.4,70.2z M108.3,68.7c0,0.2,0,0.4,0,0.5
			c0,0.2,0,0.3,0.1,0.4c0,0.1,0.1,0.1,0.2,0.1c0.2,0,0.5,0,0.7-0.1s0.4-0.2,0.5-0.3s0.3-0.4,0.3-0.7c0.1-0.3,0.1-0.7,0.1-1.1
			c0-0.3-0.1-0.6-0.2-0.8s-0.2-0.4-0.4-0.5c-0.2-0.1-0.3-0.2-0.5-0.3c-0.2-0.1-0.3-0.1-0.3-0.1c-0.1,0-0.2,0-0.3,0.1
			c-0.1,0-0.2,0.1-0.2,0.1v2.2C108.3,68.4,108.3,68.6,108.3,68.7z"/>
		<path class="st0" d="M113.7,67c0-0.2,0-0.3,0-0.4c0-0.1,0-0.1,0-0.2c0,0,0-0.1-0.1-0.1c-0.1-0.1-0.1-0.1-0.1-0.2c0,0,0-0.1,0-0.1
			c0,0,0-0.1,0.1-0.1c0-0.1,0.1-0.1,0.2-0.2s0.1-0.1,0.2-0.1c0.1,0,0.1-0.1,0.2-0.1c0.1,0,0.1,0,0.2,0.1c0.1,0,0.1,0.1,0.1,0.1
			c0,0.1,0,0.1,0,0.2c0,0.1,0,0.1,0,0.2c0,0.2,0,0.6-0.1,1.1c0,0.5,0,1.3,0,2.2c0,0.3,0,0.5-0.1,0.6s-0.1,0.2-0.2,0.2
			c0,0-0.1,0-0.1,0c0,0-0.1,0-0.1-0.1s0-0.1-0.1-0.2s0-0.3,0-0.4s0-0.4,0-0.7c0-0.3,0-0.6,0-1C113.7,67.4,113.7,67.2,113.7,67z"/>
		<path class="st0" d="M116.3,65.5c0.1-0.1,0.3-0.1,0.5-0.1c0.1,0,0.2,0,0.2,0c0,0,0.1,0.1,0.1,0.1c0.1,0.2,0.1,0.4,0.2,0.7
			c0.1,0.2,0.2,0.5,0.3,0.7s0.2,0.5,0.3,0.7c0.1,0.2,0.2,0.4,0.3,0.6c0.1,0.2,0.2,0.4,0.2,0.5c0.1,0.2,0.1,0.3,0.2,0.4
			c0.2-0.3,0.4-0.6,0.6-1s0.4-0.7,0.5-1c0.2-0.3,0.3-0.6,0.4-0.8c0.1-0.2,0.2-0.4,0.2-0.5c0-0.1,0-0.2,0-0.2c0,0,0.1-0.1,0.1-0.1
			c0,0,0.1,0,0.2,0c0.1,0,0.1,0,0.2,0c0.1,0,0.1,0,0.1,0s0,0,0,0.1c0,0,0,0.1-0.1,0.2c0,0.1-0.1,0.2-0.2,0.4
			c-0.1,0.1-0.2,0.3-0.3,0.5c-0.1,0.2-0.2,0.4-0.3,0.6c-0.1,0.2-0.2,0.4-0.3,0.6c-0.1,0.2-0.2,0.4-0.3,0.5c-0.2,0.3-0.3,0.5-0.4,0.7
			s-0.1,0.4-0.2,0.5c0,0.1-0.1,0.2-0.1,0.3c0,0.1,0,0.1-0.1,0.1c-0.1,0-0.2,0-0.3,0s-0.1-0.1-0.1-0.1c-0.3-0.7-0.6-1.4-0.9-2.1
			c-0.3-0.7-0.6-1.3-1-1.9c0,0-0.1-0.1-0.1-0.1s-0.1,0-0.1-0.1c0,0-0.1,0-0.1-0.1c0,0,0-0.1,0-0.1C116.2,65.6,116.2,65.6,116.3,65.5
			z"/>
		<path class="st0" d="M124.9,67.7C124.9,67.7,124.9,67.7,124.9,67.7c-0.1,0.1-0.1,0.1-0.1,0.2c0,0-0.1,0.1-0.1,0.1c0,0-0.1,0-0.1,0
			c-0.2,0-0.5,0-0.7,0c-0.2,0-0.4,0-0.5,0c0,0.6,0.1,1.1,0.4,1.4s0.6,0.5,1.2,0.5c0.1,0,0.2,0,0.2,0c0,0,0.1,0.1,0.1,0.1
			c0,0,0,0.1-0.1,0.1c-0.1,0-0.2,0.1-0.4,0.1c-0.3,0-0.5,0-0.8-0.1c-0.2-0.1-0.4-0.2-0.5-0.3c-0.1-0.1-0.3-0.2-0.3-0.4
			c-0.1-0.1-0.1-0.3-0.2-0.5c0-0.2-0.1-0.3-0.1-0.5c0-0.2,0-0.3,0-0.5c0-0.5,0-1,0.1-1.3c0.1-0.4,0.2-0.6,0.4-0.8
			c0.2-0.2,0.3-0.4,0.5-0.5s0.4-0.1,0.6-0.1c0.2,0,0.4,0,0.4,0.1c0.1,0,0.1,0.1,0.1,0.2c0,0.1,0,0.2-0.1,0.2h-0.5
			c-0.1,0-0.2,0-0.4,0.1c-0.1,0.1-0.2,0.1-0.3,0.3c-0.1,0.1-0.2,0.3-0.2,0.6s-0.1,0.6-0.1,1c0,0,0.1-0.1,0.1-0.1c0.1,0,0.1,0,0.2,0
			h1.1C124.9,67.6,124.9,67.6,124.9,67.7z"/>
		<path class="st0" d="M128.4,65.3c0,0,0.1,0,0.2,0c0.2,0,0.4,0,0.5,0.1c0.2,0.1,0.3,0.1,0.4,0.2s0.2,0.2,0.3,0.3
			c0.1,0.1,0.1,0.2,0.1,0.4c0,0.2,0,0.3-0.1,0.5s-0.1,0.2-0.2,0.3c-0.1,0.1-0.2,0.2-0.3,0.2c-0.1,0.1-0.2,0.1-0.3,0.1
			c-0.1,0-0.2,0.1-0.2,0.1s0,0,0,0s0,0,0.1,0.1c0,0,0.1,0.1,0.3,0.2c0.1,0.1,0.3,0.2,0.5,0.3c0.2,0.1,0.4,0.3,0.6,0.4
			c0.2,0.1,0.3,0.2,0.5,0.3s0.3,0.2,0.5,0.3c0.2,0.1,0.3,0.2,0.4,0.3s0.2,0.1,0.3,0.2c0.2,0.1,0.4,0.2,0.6,0.2c0,0,0,0,0.1,0
			c0,0,0,0,0,0.1c0,0,0,0.1-0.1,0.1s-0.1,0.1-0.2,0.2s-0.1,0.1-0.2,0.1c-0.1,0-0.1,0.1-0.1,0.1c-0.1,0-0.2-0.1-0.4-0.2
			s-0.4-0.3-0.6-0.4c-0.2-0.2-0.5-0.4-0.8-0.6c-0.3-0.2-0.6-0.4-0.8-0.6s-0.5-0.3-0.8-0.5c-0.2-0.1-0.4-0.2-0.6-0.2
			c0,0.1,0,0.2,0,0.3c0,0.1,0,0.3,0,0.4v0.2c0,0.2,0,0.4,0,0.5s0,0.2,0,0.3s0,0.2,0,0.2c0,0.1,0,0.1,0,0.1c0,0.1,0,0.1,0,0.1
			c0,0-0.1,0-0.2,0c0,0-0.1,0-0.1,0c-0.1,0-0.1,0-0.2,0s-0.1,0-0.2-0.1c0,0-0.1-0.1-0.1-0.1c0,0,0-0.1,0-0.1c0,0,0-0.1,0-0.1
			c0,0,0-0.1,0.1-0.2c0-0.1,0-0.2,0-0.2c0,0,0-0.1,0-0.3s0-0.3,0-0.6c0-0.2,0-0.4,0-0.7s0-0.5,0-0.7c0-0.1,0-0.2,0-0.3
			c0-0.1,0-0.3,0-0.4c0-0.1,0-0.2,0-0.4c0-0.1,0-0.2-0.1-0.2c-0.1-0.1-0.2-0.1-0.2-0.2c0-0.1,0.1-0.1,0.2-0.1l0.7-0.2
			C128.3,65.3,128.4,65.3,128.4,65.3z M128.2,67.3C128.2,67.4,128.3,67.4,128.2,67.3c0.1,0,0.1,0,0.2,0c0.1,0,0.2-0.1,0.3-0.1
			c0,0,0.1,0,0.2-0.1s0.1-0.1,0.2-0.1c0.1,0,0.1-0.1,0.2-0.1c0-0.1,0.1-0.1,0.1-0.2c0.1-0.2,0.1-0.3,0.1-0.5c0-0.1,0-0.1,0-0.2
			s-0.1-0.1-0.1-0.1c0,0,0,0-0.1-0.1c0,0-0.1,0-0.1-0.1c0,0-0.1,0-0.1,0c0,0-0.1,0-0.1,0s-0.1,0-0.1,0c-0.1,0-0.1,0-0.2,0
			s-0.1,0-0.2,0.1c0,0-0.1,0-0.1,0.1c0,0.1,0,0.2-0.1,0.4c0,0.1,0,0.3,0,0.4c0,0.1,0,0.3,0,0.4C128.2,67.1,128.2,67.2,128.2,67.3
			C128.2,67.3,128.2,67.3,128.2,67.3z"/>
		<path class="st0" d="M134.3,69.6C134.4,69.6,134.4,69.6,134.3,69.6c0.1,0,0.2,0,0.3,0c0.1,0,0.2,0.1,0.4,0.1c0.1,0,0.3,0,0.3-0.1
			c0.1-0.1,0.1-0.2,0.1-0.3c0-0.1,0-0.2-0.1-0.4c0-0.1-0.1-0.3-0.2-0.4c-0.1-0.2-0.2-0.3-0.2-0.5c-0.1-0.2-0.2-0.3-0.2-0.5
			c-0.1-0.2-0.1-0.3-0.2-0.4c0-0.1-0.1-0.3-0.1-0.4c0-0.1,0-0.2,0.1-0.4c0.1-0.2,0.2-0.3,0.3-0.5c0.1-0.2,0.3-0.3,0.4-0.4
			c0.2-0.1,0.3-0.2,0.5-0.2c0,0,0.1,0,0.2,0s0.1,0,0.2,0s0.1,0,0.2,0.1c0.1,0,0.1,0.1,0.1,0.1c0,0.1,0,0.2-0.1,0.2s-0.1,0-0.3,0.1
			c-0.3,0-0.6,0.1-0.7,0.2c-0.2,0.1-0.2,0.3-0.2,0.5c0,0.1,0,0.3,0.1,0.5c0.1,0.2,0.2,0.4,0.3,0.7c0.1,0.2,0.2,0.5,0.3,0.7
			c0.1,0.3,0.1,0.5,0.1,0.7c0,0,0,0.1,0,0.3s-0.1,0.3-0.1,0.4c-0.1,0.1-0.2,0.3-0.3,0.4s-0.3,0.2-0.5,0.2c0,0-0.1,0-0.2,0
			c-0.1,0-0.1,0-0.2-0.1c-0.1,0-0.1-0.1-0.2-0.1s-0.1-0.1-0.1-0.1c0,0,0-0.1,0-0.1c0,0,0-0.1,0-0.1
			C134.3,69.7,134.3,69.7,134.3,69.6z"/>
		<path class="st0" d="M139,68.9c-0.1,0-0.2,0.1-0.3,0.3l-0.4,0.7c0,0,0,0.1,0,0.1s0,0.1-0.1,0.1c-0.1,0-0.3,0-0.4,0
			c-0.1,0-0.1-0.1-0.1-0.1c0,0,0-0.1,0.1-0.1c0.1-0.1,0.1-0.1,0.2-0.2c0.1-0.1,0.2-0.3,0.3-0.4c0.1-0.2,0.2-0.3,0.3-0.5
			s0.2-0.4,0.3-0.5c0.1-0.2,0.2-0.4,0.3-0.5c0.1-0.2,0.2-0.3,0.2-0.4s0.1-0.2,0.1-0.2c0-0.1-0.1-0.2-0.3-0.4l-0.6-0.6
			c-0.1-0.1-0.1-0.1-0.2-0.2s-0.1-0.1-0.1-0.1c0,0,0,0,0.1-0.1c0,0,0.1-0.1,0.1-0.1c0.1,0,0.1-0.1,0.2-0.1s0.1,0,0.1,0
			c0.1,0,0.1,0,0.2,0c0,0,0.1,0,0.1,0c0,0,0.1,0,0.1,0.1c0,0,0,0.1,0.1,0.1c0,0,0,0.1,0.1,0.2c0.1,0.1,0.1,0.1,0.2,0.2
			c0.4,0.5,0.8,0.9,1.1,1.3c0.3,0.3,0.6,0.7,0.8,0.9c0.3,0.3,0.5,0.5,0.7,0.7c0.2,0.2,0.5,0.4,0.8,0.7c0.1,0,0.1,0.1,0.1,0.1
			c0,0,0.1,0,0.1,0c0,0,0.1,0,0.1,0s0,0.1,0,0.1c0,0,0,0.1,0,0.1c0,0-0.1,0.1-0.1,0.1c0,0-0.1,0.1-0.1,0.1c0,0-0.1,0-0.1,0h-0.2
			c0,0-0.1,0-0.1-0.1s0-0.1-0.1-0.1c-0.2-0.2-0.5-0.6-1-1.1h-2.1C139.3,68.8,139.1,68.9,139,68.9z M138.2,64.9
			c0-0.1,0.1-0.1,0.1-0.2c0.1-0.1,0.1-0.1,0.2-0.2c0.1,0,0.1-0.1,0.2-0.1c0.1,0,0.2,0,0.3,0.1c0.1,0,0.2,0.1,0.3,0.1
			c0.1,0,0.2,0.1,0.3,0.1c0.1,0,0.1,0.1,0.2,0.1c0,0,0.1,0,0.1-0.1s0.1-0.1,0.2-0.1c0.1,0,0.1-0.1,0.2-0.1s0.1-0.1,0.1-0.1
			c0,0,0,0,0.1,0.1c0,0,0,0.1,0,0.1c0,0,0,0.1-0.1,0.1s-0.1,0.1-0.2,0.2S140,65,140,65.1s-0.1,0.1-0.2,0.1c-0.1,0-0.2,0-0.3-0.1
			s-0.2-0.1-0.3-0.1c-0.1,0-0.2-0.1-0.3-0.1c-0.1,0-0.2-0.1-0.2-0.1c0,0-0.1,0-0.1,0c0,0-0.1,0.1-0.1,0.1c0,0-0.1,0.1-0.1,0.1
			s-0.1,0-0.1,0c0,0,0,0-0.1,0c0,0,0-0.1,0-0.1C138.1,65,138.1,64.9,138.2,64.9z M139.4,68.1c-0.1,0.1-0.1,0.2-0.1,0.2
			c0,0,0,0.1,0,0.1c0,0,0,0,0,0c0,0,0,0,0.1,0c0.1,0,0.1,0,0.2,0c0.1,0,0.2,0,0.4,0c0.2,0,0.4,0,0.5,0c0.1,0,0.2,0,0.3,0
			c0.1,0,0.1,0,0.2,0c0,0,0.1,0,0.1,0l-1.2-1.2L139.4,68.1z"/>
		<path class="st0" d="M145.1,67.2c0.1-0.3,0.2-0.5,0.4-0.7c0.2-0.2,0.4-0.4,0.6-0.5s0.6-0.2,0.9-0.2c0.2,0,0.4,0,0.6,0.1
			c0.2,0.1,0.4,0.2,0.5,0.4c0.1,0.2,0.3,0.4,0.3,0.6c0.1,0.3,0.1,0.6,0.1,0.9c0,0.3-0.1,0.6-0.2,0.9c-0.1,0.3-0.2,0.5-0.4,0.7
			c-0.2,0.2-0.4,0.3-0.6,0.4s-0.5,0.1-0.7,0.1c-0.2,0-0.4,0-0.6-0.1s-0.4-0.2-0.5-0.4c-0.2-0.2-0.3-0.4-0.4-0.6S145,68.3,145,68
			C145,67.7,145,67.4,145.1,67.2z M145.6,68.2c0,0.2,0.1,0.4,0.2,0.5c0.1,0.2,0.2,0.3,0.4,0.5s0.4,0.2,0.6,0.2c0.1,0,0.2,0,0.4-0.1
			c0.1,0,0.3-0.1,0.4-0.2s0.2-0.3,0.3-0.5c0.1-0.2,0.1-0.5,0.1-0.8c0-0.3,0-0.6-0.1-0.8s-0.2-0.4-0.3-0.5c-0.1-0.1-0.2-0.2-0.4-0.3
			s-0.3-0.1-0.4-0.1c-0.2,0-0.4,0-0.5,0.1s-0.3,0.2-0.4,0.4s-0.2,0.3-0.2,0.5c-0.1,0.2-0.1,0.4-0.1,0.6
			C145.5,67.9,145.5,68.1,145.6,68.2z"/>
	</g>
</g>
</svg>
