<?xml version="1.0" encoding="utf-8"?>
<!-- Generator: Adobe Illustrator 19.2.0, SVG Export Plug-In . SVG Version: 6.00 Build 0)  -->
<svg version="1.1" id="Layer_1" xmlns="http://www.w3.org/2000/svg" xmlns:xlink="http://www.w3.org/1999/xlink" x="0px" y="0px"
	 viewBox="0 0 7.2 14.4" style="enable-background:new 0 0 7.2 14.4;" xml:space="preserve">
<style type="text/css">
	.st0{fill-rule:evenodd;clip-rule:evenodd;fill:#8E847C;}
</style>
<g>
	<path class="st0" d="M5.9,14.4c0,0,1.3,0,1.3-1.3V1.3C7.2,0,5.9,0,5.9,0H1.3C1.3,0,0,0,0,1.3v11.8c0,1.3,1.3,1.3,1.3,1.3H5.9z
		 M3.6,13.8c-0.4,0-0.6-0.3-0.6-0.7c0-0.4,0.3-0.7,0.6-0.7c0.4,0,0.7,0.3,0.7,0.7C4.2,13.5,3.9,13.8,3.6,13.8L3.6,13.8z M2.6,0.8
		c0-0.1,0-0.1,0.1-0.1h1.8c0,0,0.1,0.1,0.1,0.1v0c0,0.1,0,0.1-0.1,0.1H2.7C2.6,1,2.6,0.9,2.6,0.8L2.6,0.8z M0.7,1.6h5.9v10.4H0.7
		V1.6z M0.7,1.6"/>
</g>
</svg>
