<?xml version="1.0" encoding="utf-8"?>
<!-- Generator: Adobe Illustrator 19.2.0, SVG Export Plug-In . SVG Version: 6.00 Build 0)  -->
<svg version="1.1" id="Layer_1" xmlns="http://www.w3.org/2000/svg" xmlns:xlink="http://www.w3.org/1999/xlink" x="0px" y="0px"
	 viewBox="0 0 17 15.8" style="enable-background:new 0 0 17 15.8;" xml:space="preserve">
<style type="text/css">
	.st0{fill:#8E847C;}
</style>
<g>
	<path class="st0" d="M0,6.9c0.1-0.2,0.2-0.4,0.3-0.5C0.4,6.2,0.7,6.1,0.9,6C2,5.6,3,5.2,4,4.8c1.2-0.5,2.4-0.9,3.7-1.4
		c1-0.4,2-0.8,2.9-1.1c0.9-0.3,1.7-0.7,2.6-1c1.1-0.4,2.2-0.8,3.2-1.2C16.6,0,16.7,0,16.9,0.1C17,0.2,17,0.4,17,0.6
		c-0.6,1.6-1.1,3.1-1.7,4.7c-0.4,1.2-0.8,2.3-1.3,3.5c-0.5,1.4-1.1,2.9-1.6,4.3c-0.2,0.4-0.3,0.9-0.5,1.3c-0.3,0.9-1.2,1.1-1.9,0.6
		c-0.6-0.4-1.2-0.9-1.8-1.3c-0.8-0.6-1.6-1.2-2.4-1.8c-0.1-0.1-0.3-0.2-0.5-0.3C8.9,8,12.5,4.5,16,1c0,0,0,0,0,0
		c-0.3,0.3-0.7,0.5-1,0.8c-0.8,0.6-1.6,1.3-2.4,1.9c-0.7,0.5-1.3,1-2,1.6C9.7,5.9,8.8,6.6,7.8,7.4C7.1,8,6.3,8.6,5.5,9.2
		C5,9.6,4.5,10,4,10.4c-0.1,0-0.1,0.1-0.2,0c-0.7-0.5-1.3-1-2-1.5c-0.5-0.3-0.9-0.7-1.4-1C0.2,7.8,0.1,7.5,0,7.3C0,7.1,0,7,0,6.9z"
		/>
	<path class="st0" d="M7.2,14.2c-0.2,0.1-0.4,0.3-0.5,0.4c-0.5,0.3-1,0.7-1.5,1c-0.3,0.2-0.7,0.3-1,0.1c-0.2-0.1-0.3-0.2-0.3-0.4
		c-0.1-0.4-0.2-0.8-0.2-1.2c-0.1-0.5-0.2-1-0.3-1.6c-0.1-0.4-0.1-0.8-0.2-1.2C4.5,12.3,5.8,13.3,7.2,14.2z"/>
</g>
</svg>
